<svg xmlns="http://www.w3.org/2000/svg" xmlns:xlink="http://www.w3.org/1999/xlink" width="1024" zoomAndPan="magnify" viewBox="0 0 768 187.499995" height="250" preserveAspectRatio="xMidYMid meet" version="1.0"><defs><g/><clipPath id="987048a621"><path d="M 1.019531 0 L 766.976562 0 L 766.976562 187 L 1.019531 187 Z M 1.019531 0 " clip-rule="nonzero"/></clipPath><clipPath id="7e80560819"><path d="M 183.347656 50 L 225 50 L 225 82.492188 L 183.347656 82.492188 Z M 183.347656 50 " clip-rule="nonzero"/></clipPath><clipPath id="aa5c2264e2"><path d="M 366 50 L 407 50 L 407 82.492188 L 366 82.492188 Z M 366 50 " clip-rule="nonzero"/></clipPath><clipPath id="ab58db26d9"><path d="M 530 50 L 571.675781 50 L 571.675781 82.492188 L 530 82.492188 Z M 530 50 " clip-rule="nonzero"/></clipPath><clipPath id="4113558b40"><path d="M 437.230469 108 L 438 108 L 438 109 L 437.230469 109 Z M 437.230469 108 " clip-rule="nonzero"/></clipPath><clipPath id="ea64a24621"><path d="M 437.230469 108 L 439 108 L 439 109 L 437.230469 109 Z M 437.230469 108 " clip-rule="nonzero"/></clipPath><clipPath id="a69ab19f6c"><path d="M 437.230469 108 L 438 108 L 438 109 L 437.230469 109 Z M 437.230469 108 " clip-rule="nonzero"/></clipPath><clipPath id="dfa876ac8a"><path d="M 437.230469 108 L 439 108 L 439 109 L 437.230469 109 Z M 437.230469 108 " clip-rule="nonzero"/></clipPath></defs><g clip-path="url(#987048a621)"><path fill="#ffffff" d="M 1.019531 0 L 766.980469 0 L 766.980469 194.480469 L 1.019531 194.480469 Z M 1.019531 0 " fill-opacity="1" fill-rule="nonzero"/><path fill="#ffffff" d="M 1.019531 0 L 766.980469 0 L 766.980469 187 L 1.019531 187 Z M 1.019531 0 " fill-opacity="1" fill-rule="nonzero"/><path fill="#ffffff" d="M 1.019531 0 L 766.980469 0 L 766.980469 187 L 1.019531 187 Z M 1.019531 0 " fill-opacity="1" fill-rule="nonzero"/></g><g clip-path="url(#7e80560819)"><path fill="#000000" d="M 223.96875 64.277344 L 211.34375 51.652344 C 210.179688 50.492188 208.242188 50.492188 207.078125 51.652344 C 205.914062 52.816406 205.914062 54.757812 207.078125 55.917969 L 214.53125 63.417969 L 186.957031 63.417969 C 185.277344 63.417969 183.941406 64.753906 183.941406 66.433594 C 183.941406 68.113281 185.277344 69.449219 186.957031 69.449219 L 214.53125 69.449219 L 207.078125 76.902344 C 205.914062 78.066406 205.914062 80.003906 207.078125 81.167969 C 207.679688 81.769531 208.457031 82.074219 209.234375 82.074219 C 210.007812 82.074219 210.785156 81.769531 211.386719 81.167969 L 223.96875 68.585938 C 224.527344 68.027344 224.871094 67.25 224.871094 66.433594 C 224.871094 65.613281 224.570312 64.839844 223.96875 64.277344 Z M 223.96875 64.277344 " fill-opacity="1" fill-rule="nonzero"/></g><g clip-path="url(#aa5c2264e2)"><path fill="#000000" d="M 406.023438 64.277344 L 393.402344 51.652344 C 392.238281 50.492188 390.296875 50.492188 389.136719 51.652344 C 387.972656 52.816406 387.972656 54.757812 389.136719 55.917969 L 396.589844 63.417969 L 369.015625 63.417969 C 367.335938 63.417969 366 64.753906 366 66.433594 C 366 68.113281 367.335938 69.449219 369.015625 69.449219 L 396.589844 69.449219 L 389.136719 76.902344 C 387.972656 78.066406 387.972656 80.003906 389.136719 81.167969 C 389.738281 81.769531 390.515625 82.074219 391.289062 82.074219 C 392.066406 82.074219 392.839844 81.769531 393.445312 81.167969 L 406.023438 68.585938 C 406.585938 68.027344 406.929688 67.25 406.929688 66.433594 C 406.929688 65.613281 406.628906 64.839844 406.023438 64.277344 Z M 406.023438 64.277344 " fill-opacity="1" fill-rule="nonzero"/></g><g clip-path="url(#ab58db26d9)"><path fill="#000000" d="M 570.410156 64.277344 L 557.785156 51.652344 C 556.621094 50.492188 554.683594 50.492188 553.519531 51.652344 C 552.355469 52.816406 552.355469 54.757812 553.519531 55.917969 L 560.972656 63.417969 L 533.398438 63.417969 C 531.71875 63.417969 530.382812 64.753906 530.382812 66.433594 C 530.382812 68.113281 531.71875 69.449219 533.398438 69.449219 L 560.972656 69.449219 L 553.519531 76.902344 C 552.355469 78.066406 552.355469 80.003906 553.519531 81.167969 C 554.125 81.769531 554.898438 82.074219 555.675781 82.074219 C 556.449219 82.074219 557.226562 81.769531 557.828125 81.167969 L 570.410156 68.585938 C 570.96875 68.027344 571.3125 67.25 571.3125 66.433594 C 571.3125 65.613281 571.011719 64.839844 570.410156 64.277344 Z M 570.410156 64.277344 " fill-opacity="1" fill-rule="nonzero"/></g><path fill="#000000" d="M 146.726562 97.671875 C 154.558594 88.527344 158.875 76.90625 158.875 64.835938 C 158.875 50.121094 152.542969 36.859375 142.464844 27.621094 C 142.449219 27.597656 142.441406 27.574219 142.425781 27.554688 C 142.378906 27.503906 142.324219 27.480469 142.273438 27.441406 C 133.304688 19.308594 121.410156 14.34375 108.375 14.34375 C 95.34375 14.34375 83.453125 19.304688 74.484375 27.433594 C 74.433594 27.472656 74.371094 27.5 74.324219 27.550781 C 74.304688 27.570312 74.300781 27.597656 74.28125 27.621094 C 64.203125 36.859375 57.871094 50.121094 57.871094 64.835938 C 57.871094 79.554688 64.203125 92.820312 74.28125 102.058594 C 74.300781 102.082031 74.304688 102.105469 74.320312 102.125 C 74.359375 102.164062 74.402344 102.179688 74.445312 102.214844 C 83.417969 110.367188 95.328125 115.339844 108.375 115.339844 C 120.011719 115.339844 131.289062 111.304688 140.277344 103.96875 L 142.953125 107.964844 C 143.609375 108.949219 144.613281 109.621094 145.773438 109.851562 C 146.0625 109.90625 146.355469 109.9375 146.644531 109.9375 C 147.511719 109.9375 148.359375 109.679688 149.101562 109.183594 C 151.128906 107.824219 151.675781 105.066406 150.320312 103.039062 Z M 139.414062 86.746094 C 139.355469 86.65625 139.277344 86.59375 139.199219 86.53125 C 139.171875 86.507812 139.152344 86.472656 139.121094 86.453125 C 139.070312 86.417969 139.007812 86.40625 138.949219 86.382812 C 138.882812 86.355469 138.820312 86.320312 138.753906 86.304688 C 138.621094 86.28125 138.488281 86.28125 138.355469 86.304688 L 138.351562 86.304688 C 138.21875 86.328125 138.089844 86.378906 137.972656 86.460938 L 137.96875 86.460938 L 136.019531 87.765625 L 133.441406 83.914062 C 136.199219 81.769531 138.085938 78.75 138.773438 75.289062 C 139.414062 72.054688 138.9375 68.773438 137.457031 65.878906 L 156.765625 65.878906 C 156.53125 76.882812 152.570312 87.441406 145.523438 95.871094 Z M 132.34375 90.222656 C 132.339844 90.226562 132.335938 90.226562 132.332031 90.230469 C 131.972656 90.46875 131.8125 90.894531 131.890625 91.292969 C 131.914062 91.425781 131.964844 91.554688 132.046875 91.675781 C 132.046875 91.675781 132.046875 91.679688 132.050781 91.679688 L 133.90625 94.457031 C 131.804688 93.21875 129.625 92.140625 127.382812 91.230469 C 128.328125 89.460938 129.171875 87.699219 129.921875 85.941406 C 130.535156 85.695312 131.132812 85.410156 131.714844 85.082031 L 134.285156 88.925781 Z M 134.863281 65.550781 C 136.710938 68.3125 137.375 71.625 136.726562 74.882812 C 136.082031 78.140625 134.207031 80.953125 131.445312 82.800781 C 129.390625 84.175781 127.003906 84.902344 124.539062 84.902344 C 120.375 84.902344 116.507812 82.839844 114.191406 79.382812 C 110.382812 73.683594 111.914062 65.945312 117.613281 62.132812 C 119.667969 60.757812 122.054688 60.03125 124.515625 60.03125 C 128.683594 60.03125 132.550781 62.09375 134.863281 65.550781 Z M 124.519531 57.949219 C 121.640625 57.949219 118.855469 58.796875 116.457031 60.402344 C 115.046875 61.347656 113.867188 62.503906 112.90625 63.796875 L 109.417969 63.796875 L 109.417969 42.125 C 114.941406 42.011719 120.34375 41.003906 125.449219 39.171875 C 129.214844 46.171875 131.414062 53.121094 132.101562 60.109375 C 129.851562 58.730469 127.246094 57.949219 124.515625 57.949219 Z M 109.417969 40.042969 L 109.417969 17.949219 C 115.738281 24.496094 120.726562 30.9375 124.414062 37.332031 C 119.628906 39.007812 114.578125 39.933594 109.417969 40.042969 Z M 110.902344 16.492188 C 122.019531 17.066406 132.148438 21.414062 140.046875 28.269531 C 135.949219 31.8125 131.332031 34.609375 126.386719 36.589844 C 122.597656 29.945312 117.445312 23.265625 110.902344 16.488281 Z M 107.335938 17.953125 L 107.335938 40.042969 C 102.171875 39.929688 97.117188 39.007812 92.328125 37.328125 C 96.015625 30.9375 101.019531 24.492188 107.335938 17.953125 Z M 90.347656 36.585938 C 85.40625 34.605469 80.796875 31.804688 76.703125 28.265625 C 84.605469 21.414062 94.734375 17.066406 105.851562 16.492188 C 99.3125 23.261719 94.140625 29.941406 90.347656 36.585938 Z M 107.335938 42.125 L 107.335938 63.796875 L 84.429688 63.792969 C 84.605469 55.578125 86.882812 47.410156 91.316406 39.175781 C 96.414062 41.003906 101.816406 42.011719 107.335938 42.125 Z M 107.335938 65.878906 L 107.335938 87.558594 C 101.820312 87.667969 96.417969 88.675781 91.316406 90.503906 C 86.882812 82.265625 84.609375 74.097656 84.433594 65.882812 Z M 107.335938 89.636719 L 107.335938 111.734375 C 101.019531 105.1875 96.019531 98.746094 92.332031 92.347656 C 97.117188 90.671875 102.171875 89.746094 107.335938 89.636719 Z M 105.851562 113.195312 C 94.730469 112.621094 84.601562 108.269531 76.699219 101.414062 C 80.792969 97.871094 85.410156 95.070312 90.351562 93.09375 C 94.144531 99.738281 99.3125 106.421875 105.851562 113.195312 Z M 109.417969 89.632812 C 114.585938 89.742188 119.617188 90.652344 124.394531 92.328125 C 120.691406 98.753906 115.683594 105.257812 109.417969 111.753906 Z M 109.417969 87.550781 L 109.417969 65.878906 L 111.605469 65.878906 C 109.304688 70.410156 109.441406 76.023438 112.464844 80.542969 C 115.164062 84.578125 119.679688 86.988281 124.539062 86.988281 C 125.476562 86.988281 126.402344 86.886719 127.308594 86.710938 C 126.730469 87.964844 126.101562 89.21875 125.421875 90.480469 C 120.328125 88.65625 114.945312 87.664062 109.417969 87.550781 Z M 156.765625 63.796875 L 136.140625 63.796875 C 135.59375 63.0625 134.996094 62.375 134.332031 61.765625 C 133.847656 53.949219 131.566406 46.203125 127.414062 38.421875 C 132.554688 36.332031 137.351562 33.390625 141.601562 29.675781 C 150.707031 38.285156 156.480469 50.375 156.765625 63.796875 Z M 75.148438 29.671875 C 79.40625 33.394531 84.207031 36.335938 89.355469 38.429688 C 84.839844 46.886719 82.523438 55.304688 82.347656 63.796875 L 59.980469 63.796875 C 60.265625 50.375 66.039062 38.28125 75.148438 29.675781 Z M 59.980469 65.878906 L 82.347656 65.878906 C 82.523438 74.371094 84.839844 82.789062 89.351562 91.253906 C 84.203125 93.34375 79.402344 96.285156 75.144531 100.007812 C 66.039062 91.394531 60.265625 79.304688 59.980469 65.882812 Z M 110.929688 113.183594 C 117.402344 106.472656 122.570312 99.738281 126.371094 93.070312 C 130.066406 94.546875 133.589844 96.488281 136.871094 98.878906 L 139.113281 102.234375 C 131.128906 108.800781 121.242188 112.640625 110.929688 113.183594 Z M 147.945312 107.457031 C 147.417969 107.804688 146.789062 107.929688 146.179688 107.808594 C 145.566406 107.6875 145.035156 107.332031 144.683594 106.808594 L 138.535156 97.625 C 138.53125 97.617188 138.527344 97.609375 138.523438 97.601562 L 134.359375 91.382812 L 138.261719 88.769531 L 148.589844 104.195312 C 149.308594 105.273438 149.019531 106.734375 147.945312 107.457031 Z M 147.945312 107.457031 " fill-opacity="1" fill-rule="nonzero"/><g fill="#000000" fill-opacity="1"><g transform="translate(61.961063, 166.999158)"><g><path d="M 1.421875 0 L 1.421875 -16 L 6.34375 -16 C 7.75 -16 9.003906 -15.679688 10.109375 -15.046875 C 11.222656 -14.410156 12.09375 -13.507812 12.71875 -12.34375 C 13.34375 -11.175781 13.65625 -9.847656 13.65625 -8.359375 L 13.65625 -7.625 C 13.65625 -6.132812 13.347656 -4.8125 12.734375 -3.65625 C 12.128906 -2.5 11.269531 -1.601562 10.15625 -0.96875 C 9.039062 -0.332031 7.785156 -0.0078125 6.390625 0 Z M 4.71875 -13.328125 L 4.71875 -2.640625 L 6.3125 -2.640625 C 7.601562 -2.640625 8.585938 -3.0625 9.265625 -3.90625 C 9.953125 -4.75 10.300781 -5.957031 10.3125 -7.53125 L 10.3125 -8.375 C 10.3125 -10 9.972656 -11.226562 9.296875 -12.0625 C 8.628906 -12.90625 7.644531 -13.328125 6.34375 -13.328125 Z M 4.71875 -13.328125 "/></g></g></g><g fill="#000000" fill-opacity="1"><g transform="translate(76.58296, 166.999158)"><g><path d="M 4.578125 0 L 1.390625 0 L 1.390625 -11.890625 L 4.578125 -11.890625 Z M 1.203125 -14.96875 C 1.203125 -15.4375 1.359375 -15.820312 1.671875 -16.125 C 1.992188 -16.4375 2.429688 -16.59375 2.984375 -16.59375 C 3.523438 -16.59375 3.953125 -16.4375 4.265625 -16.125 C 4.585938 -15.820312 4.75 -15.4375 4.75 -14.96875 C 4.75 -14.476562 4.585938 -14.078125 4.265625 -13.765625 C 3.941406 -13.460938 3.507812 -13.3125 2.96875 -13.3125 C 2.4375 -13.3125 2.007812 -13.460938 1.6875 -13.765625 C 1.363281 -14.078125 1.203125 -14.476562 1.203125 -14.96875 Z M 1.203125 -14.96875 "/></g></g></g><g fill="#000000" fill-opacity="1"><g transform="translate(82.548169, 166.999158)"><g><path d="M 7.65625 -3.28125 C 7.65625 -3.675781 7.460938 -3.984375 7.078125 -4.203125 C 6.691406 -4.421875 6.078125 -4.617188 5.234375 -4.796875 C 2.398438 -5.390625 0.984375 -6.59375 0.984375 -8.40625 C 0.984375 -9.457031 1.421875 -10.335938 2.296875 -11.046875 C 3.171875 -11.753906 4.316406 -12.109375 5.734375 -12.109375 C 7.242188 -12.109375 8.453125 -11.75 9.359375 -11.03125 C 10.265625 -10.320312 10.71875 -9.398438 10.71875 -8.265625 L 7.53125 -8.265625 C 7.53125 -8.722656 7.382812 -9.097656 7.09375 -9.390625 C 6.800781 -9.691406 6.34375 -9.84375 5.71875 -9.84375 C 5.1875 -9.84375 4.773438 -9.722656 4.484375 -9.484375 C 4.191406 -9.242188 4.046875 -8.9375 4.046875 -8.5625 C 4.046875 -8.207031 4.210938 -7.921875 4.546875 -7.703125 C 4.878906 -7.492188 5.441406 -7.304688 6.234375 -7.140625 C 7.023438 -6.984375 7.691406 -6.804688 8.234375 -6.609375 C 9.910156 -5.992188 10.75 -4.929688 10.75 -3.421875 C 10.75 -2.335938 10.28125 -1.457031 9.34375 -0.78125 C 8.414062 -0.113281 7.21875 0.21875 5.75 0.21875 C 4.75 0.21875 3.863281 0.0390625 3.09375 -0.3125 C 2.320312 -0.664062 1.710938 -1.148438 1.265625 -1.765625 C 0.828125 -2.390625 0.609375 -3.0625 0.609375 -3.78125 L 3.625 -3.78125 C 3.65625 -3.21875 3.863281 -2.785156 4.25 -2.484375 C 4.632812 -2.179688 5.15625 -2.03125 5.8125 -2.03125 C 6.414062 -2.03125 6.875 -2.144531 7.1875 -2.375 C 7.5 -2.601562 7.65625 -2.90625 7.65625 -3.28125 Z M 7.65625 -3.28125 "/></g></g></g><g fill="#000000" fill-opacity="1"><g transform="translate(94.116057, 166.999158)"><g><path d="M 6.15625 -2.34375 C 6.75 -2.34375 7.226562 -2.503906 7.59375 -2.828125 C 7.957031 -3.148438 8.144531 -3.578125 8.15625 -4.109375 L 11.140625 -4.109375 C 11.128906 -3.304688 10.90625 -2.566406 10.46875 -1.890625 C 10.039062 -1.222656 9.453125 -0.703125 8.703125 -0.328125 C 7.953125 0.0351562 7.125 0.21875 6.21875 0.21875 C 4.519531 0.21875 3.175781 -0.316406 2.1875 -1.390625 C 1.207031 -2.472656 0.71875 -3.96875 0.71875 -5.875 L 0.71875 -6.09375 C 0.71875 -7.914062 1.203125 -9.375 2.171875 -10.46875 C 3.148438 -11.5625 4.492188 -12.109375 6.203125 -12.109375 C 7.679688 -12.109375 8.867188 -11.679688 9.765625 -10.828125 C 10.671875 -9.984375 11.128906 -8.859375 11.140625 -7.453125 L 8.15625 -7.453125 C 8.144531 -8.066406 7.957031 -8.566406 7.59375 -8.953125 C 7.226562 -9.335938 6.742188 -9.53125 6.140625 -9.53125 C 5.398438 -9.53125 4.84375 -9.257812 4.46875 -8.71875 C 4.09375 -8.1875 3.90625 -7.316406 3.90625 -6.109375 L 3.90625 -5.78125 C 3.90625 -4.550781 4.085938 -3.671875 4.453125 -3.140625 C 4.828125 -2.609375 5.394531 -2.34375 6.15625 -2.34375 Z M 6.15625 -2.34375 "/></g></g></g><g fill="#000000" fill-opacity="1"><g transform="translate(105.848723, 166.999158)"><g><path d="M 0.71875 -6.046875 C 0.71875 -7.234375 0.945312 -8.285156 1.40625 -9.203125 C 1.863281 -10.128906 2.515625 -10.84375 3.359375 -11.34375 C 4.210938 -11.851562 5.207031 -12.109375 6.34375 -12.109375 C 7.945312 -12.109375 9.253906 -11.613281 10.265625 -10.625 C 11.273438 -9.644531 11.84375 -8.316406 11.96875 -6.640625 L 11.984375 -5.828125 C 11.984375 -4.003906 11.472656 -2.539062 10.453125 -1.4375 C 9.441406 -0.332031 8.078125 0.21875 6.359375 0.21875 C 4.648438 0.21875 3.28125 -0.328125 2.25 -1.421875 C 1.226562 -2.523438 0.71875 -4.019531 0.71875 -5.90625 Z M 3.90625 -5.828125 C 3.90625 -4.691406 4.113281 -3.828125 4.53125 -3.234375 C 4.957031 -2.640625 5.566406 -2.34375 6.359375 -2.34375 C 7.128906 -2.34375 7.726562 -2.632812 8.15625 -3.21875 C 8.59375 -3.8125 8.8125 -4.753906 8.8125 -6.046875 C 8.8125 -7.160156 8.59375 -8.019531 8.15625 -8.625 C 7.726562 -9.226562 7.125 -9.53125 6.34375 -9.53125 C 5.5625 -9.53125 4.957031 -9.226562 4.53125 -8.625 C 4.113281 -8.019531 3.90625 -7.085938 3.90625 -5.828125 Z M 3.90625 -5.828125 "/></g></g></g><g fill="#000000" fill-opacity="1"><g transform="translate(118.570097, 166.999158)"><g><path d="M 5.671875 -3.875 L 7.875 -11.890625 L 11.1875 -11.890625 L 7.1875 0 L 4.15625 0 L 0.140625 -11.890625 L 3.453125 -11.890625 Z M 5.671875 -3.875 "/></g></g></g><g fill="#000000" fill-opacity="1"><g transform="translate(129.940243, 166.999158)"><g><path d="M 6.6875 0.21875 C 4.945312 0.21875 3.53125 -0.3125 2.4375 -1.375 C 1.34375 -2.445312 0.796875 -3.875 0.796875 -5.65625 L 0.796875 -5.96875 C 0.796875 -7.15625 1.023438 -8.21875 1.484375 -9.15625 C 1.941406 -10.101562 2.59375 -10.832031 3.4375 -11.34375 C 4.289062 -11.851562 5.257812 -12.109375 6.34375 -12.109375 C 7.96875 -12.109375 9.242188 -11.59375 10.171875 -10.5625 C 11.109375 -9.539062 11.578125 -8.085938 11.578125 -6.203125 L 11.578125 -4.90625 L 4.015625 -4.90625 C 4.109375 -4.132812 4.414062 -3.515625 4.9375 -3.046875 C 5.457031 -2.578125 6.113281 -2.34375 6.90625 -2.34375 C 8.125 -2.34375 9.078125 -2.785156 9.765625 -3.671875 L 11.328125 -1.921875 C 10.847656 -1.242188 10.203125 -0.71875 9.390625 -0.34375 C 8.578125 0.03125 7.675781 0.21875 6.6875 0.21875 Z M 6.328125 -9.53125 C 5.703125 -9.53125 5.191406 -9.316406 4.796875 -8.890625 C 4.398438 -8.472656 4.148438 -7.867188 4.046875 -7.078125 L 8.453125 -7.078125 L 8.453125 -7.328125 C 8.441406 -8.023438 8.253906 -8.566406 7.890625 -8.953125 C 7.523438 -9.335938 7.003906 -9.53125 6.328125 -9.53125 Z M 6.328125 -9.53125 "/></g></g></g><g fill="#000000" fill-opacity="1"><g transform="translate(142.101355, 166.999158)"><g><path d="M 7.90625 -8.90625 C 7.46875 -8.96875 7.082031 -9 6.75 -9 C 5.550781 -9 4.765625 -8.59375 4.390625 -7.78125 L 4.390625 0 L 1.21875 0 L 1.21875 -11.890625 L 4.21875 -11.890625 L 4.3125 -10.46875 C 4.945312 -11.5625 5.828125 -12.109375 6.953125 -12.109375 C 7.304688 -12.109375 7.632812 -12.0625 7.9375 -11.96875 Z M 7.90625 -8.90625 "/></g></g></g><g fill="#000000" fill-opacity="1"><g transform="translate(150.307635, 166.999158)"><g><path d="M 5.65625 -4.5 L 7.859375 -11.890625 L 11.265625 -11.890625 L 6.484375 1.84375 L 6.21875 2.46875 C 5.507812 4.019531 4.335938 4.796875 2.703125 4.796875 C 2.242188 4.796875 1.773438 4.726562 1.296875 4.59375 L 1.296875 2.1875 L 1.78125 2.203125 C 2.382812 2.203125 2.832031 2.109375 3.125 1.921875 C 3.425781 1.734375 3.660156 1.429688 3.828125 1.015625 L 4.203125 0.03125 L 0.03125 -11.890625 L 3.453125 -11.890625 Z M 5.65625 -4.5 "/></g></g></g><path fill="#000000" d="M 294.089844 33.425781 C 278.34375 33.425781 265.527344 46.242188 265.527344 61.992188 C 265.527344 73.265625 272.070312 83.371094 282.28125 88.003906 L 282.28125 94.769531 C 282.265625 94.851562 282.230469 94.925781 282.230469 95.007812 C 282.230469 95.09375 282.265625 95.167969 282.28125 95.25 L 282.28125 109.207031 C 282.28125 112.617188 285.058594 115.394531 288.46875 115.394531 L 299.746094 115.394531 C 303.15625 115.394531 305.933594 112.617188 305.933594 109.207031 L 305.933594 102.210938 L 305.902344 102.210938 L 305.902344 88.003906 C 316.113281 83.371094 322.65625 73.265625 322.65625 61.992188 C 322.65625 46.242188 309.84375 33.425781 294.089844 33.425781 Z M 302.988281 109.207031 C 302.988281 110.992188 301.535156 112.449219 299.746094 112.449219 L 288.46875 112.449219 C 286.683594 112.449219 285.226562 110.992188 285.226562 109.207031 L 285.226562 105.160156 L 302.988281 105.160156 Z M 285.226562 102.214844 L 285.226562 96.484375 L 302.957031 96.484375 L 302.957031 102.214844 Z M 288.933594 62.945312 L 286.886719 62.945312 C 285.824219 62.945312 284.957031 62.082031 284.957031 61.015625 L 284.957031 60.710938 C 284.957031 59.648438 285.824219 58.785156 287.003906 58.785156 C 288.066406 58.785156 288.933594 59.648438 288.933594 60.710938 Z M 296.15625 93.535156 L 291.878906 93.535156 L 291.878906 65.890625 L 296.15625 65.890625 Z M 303.867188 85.675781 L 302.957031 86.050781 L 302.957031 93.535156 L 299.105469 93.535156 L 299.105469 65.890625 L 301.035156 65.890625 C 303.722656 65.890625 305.910156 63.703125 305.910156 61.015625 L 305.910156 60.710938 C 305.910156 58.023438 303.722656 55.835938 301.035156 55.835938 C 298.347656 55.835938 296.160156 58.023438 296.160156 60.710938 L 296.160156 62.945312 L 291.882812 62.945312 L 291.882812 60.710938 C 291.882812 58.023438 289.695312 55.835938 286.886719 55.835938 C 284.199219 55.835938 282.011719 58.023438 282.011719 60.710938 L 282.011719 61.015625 C 282.011719 63.703125 284.199219 65.890625 286.886719 65.890625 L 288.933594 65.890625 L 288.933594 93.535156 L 285.226562 93.535156 L 285.226562 86.050781 L 284.316406 85.675781 C 274.695312 81.699219 268.476562 72.402344 268.476562 61.992188 C 268.476562 47.867188 279.96875 36.375 294.09375 36.375 C 308.21875 36.375 319.710938 47.867188 319.710938 61.992188 C 319.710938 72.402344 313.496094 81.699219 303.871094 85.675781 Z M 299.105469 62.945312 L 299.105469 60.710938 C 299.105469 59.648438 299.972656 58.785156 301.035156 58.785156 C 302.097656 58.785156 302.964844 59.648438 302.964844 60.710938 L 302.964844 61.015625 C 302.964844 62.082031 302.097656 62.945312 301.035156 62.945312 Z M 292.488281 26.9375 L 292.488281 19.5625 C 292.488281 18.75 293.148438 18.089844 293.960938 18.089844 C 294.777344 18.089844 295.433594 18.75 295.433594 19.5625 L 295.433594 26.9375 C 295.433594 27.75 294.777344 28.410156 293.960938 28.410156 C 293.148438 28.410156 292.488281 27.75 292.488281 26.9375 Z M 259.390625 62.304688 C 259.390625 63.117188 258.730469 63.777344 257.917969 63.777344 L 250.542969 63.777344 C 249.730469 63.777344 249.070312 63.117188 249.070312 62.304688 C 249.070312 61.488281 249.730469 60.828125 250.542969 60.828125 L 257.917969 60.828125 C 258.730469 60.828125 259.390625 61.488281 259.390625 62.304688 Z M 339.453125 62.304688 C 339.453125 63.117188 338.792969 63.777344 337.980469 63.777344 L 330.605469 63.777344 C 329.792969 63.777344 329.132812 63.117188 329.132812 62.304688 C 329.132812 61.488281 329.792969 60.828125 330.605469 60.828125 L 337.980469 60.828125 C 338.792969 60.828125 339.453125 61.488281 339.453125 62.304688 Z M 326.214844 30.347656 C 326.792969 30.921875 326.792969 31.855469 326.214844 32.429688 L 321 37.644531 C 320.714844 37.933594 320.335938 38.078125 319.960938 38.078125 C 319.582031 38.078125 319.207031 37.933594 318.917969 37.644531 C 318.34375 37.070312 318.34375 36.136719 318.917969 35.5625 L 324.132812 30.347656 C 324.707031 29.773438 325.640625 29.773438 326.214844 30.347656 Z M 267.523438 37.644531 L 262.308594 32.429688 C 261.730469 31.855469 261.730469 30.921875 262.308594 30.347656 C 262.882812 29.773438 263.816406 29.773438 264.390625 30.347656 L 269.605469 35.5625 C 270.179688 36.136719 270.179688 37.070312 269.605469 37.644531 C 269.316406 37.933594 268.941406 38.078125 268.5625 38.078125 C 268.1875 38.078125 267.808594 37.933594 267.523438 37.644531 Z M 267.523438 37.644531 " fill-opacity="1" fill-rule="nonzero"/><g fill="#000000" fill-opacity="1"><g transform="translate(254.377393, 166.999158)"><g><path d="M 4.9375 0 L 1.640625 0 L 1.640625 -16 L 4.9375 -16 Z M 4.9375 0 "/></g></g></g><g fill="#000000" fill-opacity="1"><g transform="translate(260.935827, 166.999158)"><g><path d="M 0.71875 -6.03125 C 0.71875 -7.882812 1.132812 -9.359375 1.96875 -10.453125 C 2.800781 -11.554688 3.941406 -12.109375 5.390625 -12.109375 C 6.546875 -12.109375 7.5 -11.675781 8.25 -10.8125 L 8.25 -16.875 L 11.4375 -16.875 L 11.4375 0 L 8.5625 0 L 8.421875 -1.265625 C 7.628906 -0.273438 6.609375 0.21875 5.359375 0.21875 C 3.960938 0.21875 2.835938 -0.332031 1.984375 -1.4375 C 1.140625 -2.539062 0.71875 -4.070312 0.71875 -6.03125 Z M 3.90625 -5.796875 C 3.90625 -4.679688 4.097656 -3.828125 4.484375 -3.234375 C 4.867188 -2.640625 5.429688 -2.34375 6.171875 -2.34375 C 7.148438 -2.34375 7.84375 -2.757812 8.25 -3.59375 L 8.25 -8.28125 C 7.851562 -9.113281 7.171875 -9.53125 6.203125 -9.53125 C 4.671875 -9.53125 3.90625 -8.285156 3.90625 -5.796875 Z M 3.90625 -5.796875 "/></g></g></g><g fill="#000000" fill-opacity="1"><g transform="translate(273.613258, 166.999158)"><g><path d="M 6.6875 0.21875 C 4.945312 0.21875 3.53125 -0.3125 2.4375 -1.375 C 1.34375 -2.445312 0.796875 -3.875 0.796875 -5.65625 L 0.796875 -5.96875 C 0.796875 -7.15625 1.023438 -8.21875 1.484375 -9.15625 C 1.941406 -10.101562 2.59375 -10.832031 3.4375 -11.34375 C 4.289062 -11.851562 5.257812 -12.109375 6.34375 -12.109375 C 7.96875 -12.109375 9.242188 -11.59375 10.171875 -10.5625 C 11.109375 -9.539062 11.578125 -8.085938 11.578125 -6.203125 L 11.578125 -4.90625 L 4.015625 -4.90625 C 4.109375 -4.132812 4.414062 -3.515625 4.9375 -3.046875 C 5.457031 -2.578125 6.113281 -2.34375 6.90625 -2.34375 C 8.125 -2.34375 9.078125 -2.785156 9.765625 -3.671875 L 11.328125 -1.921875 C 10.847656 -1.242188 10.203125 -0.71875 9.390625 -0.34375 C 8.578125 0.03125 7.675781 0.21875 6.6875 0.21875 Z M 6.328125 -9.53125 C 5.703125 -9.53125 5.191406 -9.316406 4.796875 -8.890625 C 4.398438 -8.472656 4.148438 -7.867188 4.046875 -7.078125 L 8.453125 -7.078125 L 8.453125 -7.328125 C 8.441406 -8.023438 8.253906 -8.566406 7.890625 -8.953125 C 7.523438 -9.335938 7.003906 -9.53125 6.328125 -9.53125 Z M 6.328125 -9.53125 "/></g></g></g><g fill="#000000" fill-opacity="1"><g transform="translate(285.77437, 166.999158)"><g><path d="M 8.109375 0 C 7.960938 -0.28125 7.859375 -0.632812 7.796875 -1.0625 C 7.023438 -0.207031 6.023438 0.21875 4.796875 0.21875 C 3.628906 0.21875 2.660156 -0.113281 1.890625 -0.78125 C 1.128906 -1.457031 0.75 -2.3125 0.75 -3.34375 C 0.75 -4.601562 1.210938 -5.566406 2.140625 -6.234375 C 3.078125 -6.910156 4.429688 -7.253906 6.203125 -7.265625 L 7.65625 -7.265625 L 7.65625 -7.9375 C 7.65625 -8.488281 7.515625 -8.925781 7.234375 -9.25 C 6.953125 -9.582031 6.507812 -9.75 5.90625 -9.75 C 5.363281 -9.75 4.941406 -9.617188 4.640625 -9.359375 C 4.335938 -9.109375 4.1875 -8.757812 4.1875 -8.3125 L 1.015625 -8.3125 C 1.015625 -9 1.222656 -9.632812 1.640625 -10.21875 C 2.066406 -10.8125 2.664062 -11.273438 3.4375 -11.609375 C 4.21875 -11.941406 5.09375 -12.109375 6.0625 -12.109375 C 7.53125 -12.109375 8.691406 -11.738281 9.546875 -11 C 10.410156 -10.269531 10.84375 -9.238281 10.84375 -7.90625 L 10.84375 -2.75 C 10.851562 -1.625 11.007812 -0.769531 11.3125 -0.1875 L 11.3125 0 Z M 5.484375 -2.203125 C 5.953125 -2.203125 6.382812 -2.304688 6.78125 -2.515625 C 7.175781 -2.722656 7.46875 -3.003906 7.65625 -3.359375 L 7.65625 -5.40625 L 6.46875 -5.40625 C 4.882812 -5.40625 4.039062 -4.851562 3.9375 -3.75 L 3.921875 -3.578125 C 3.921875 -3.179688 4.054688 -2.851562 4.328125 -2.59375 C 4.609375 -2.332031 4.992188 -2.203125 5.484375 -2.203125 Z M 5.484375 -2.203125 "/></g></g></g><g fill="#000000" fill-opacity="1"><g transform="translate(297.836606, 166.999158)"><g><path d="M 5.015625 -14.8125 L 5.015625 -11.890625 L 7.046875 -11.890625 L 7.046875 -9.5625 L 5.015625 -9.5625 L 5.015625 -3.625 C 5.015625 -3.1875 5.097656 -2.867188 5.265625 -2.671875 C 5.441406 -2.484375 5.765625 -2.390625 6.234375 -2.390625 C 6.585938 -2.390625 6.898438 -2.414062 7.171875 -2.46875 L 7.171875 -0.0625 C 6.546875 0.125 5.90625 0.21875 5.25 0.21875 C 3.019531 0.21875 1.882812 -0.90625 1.84375 -3.15625 L 1.84375 -9.5625 L 0.109375 -9.5625 L 0.109375 -11.890625 L 1.84375 -11.890625 L 1.84375 -14.8125 Z M 5.015625 -14.8125 "/></g></g></g><g fill="#000000" fill-opacity="1"><g transform="translate(305.43867, 166.999158)"><g><path d="M 4.578125 0 L 1.390625 0 L 1.390625 -11.890625 L 4.578125 -11.890625 Z M 1.203125 -14.96875 C 1.203125 -15.4375 1.359375 -15.820312 1.671875 -16.125 C 1.992188 -16.4375 2.429688 -16.59375 2.984375 -16.59375 C 3.523438 -16.59375 3.953125 -16.4375 4.265625 -16.125 C 4.585938 -15.820312 4.75 -15.4375 4.75 -14.96875 C 4.75 -14.476562 4.585938 -14.078125 4.265625 -13.765625 C 3.941406 -13.460938 3.507812 -13.3125 2.96875 -13.3125 C 2.4375 -13.3125 2.007812 -13.460938 1.6875 -13.765625 C 1.363281 -14.078125 1.203125 -14.476562 1.203125 -14.96875 Z M 1.203125 -14.96875 "/></g></g></g><g fill="#000000" fill-opacity="1"><g transform="translate(311.40388, 166.999158)"><g><path d="M 0.71875 -6.046875 C 0.71875 -7.234375 0.945312 -8.285156 1.40625 -9.203125 C 1.863281 -10.128906 2.515625 -10.84375 3.359375 -11.34375 C 4.210938 -11.851562 5.207031 -12.109375 6.34375 -12.109375 C 7.945312 -12.109375 9.253906 -11.613281 10.265625 -10.625 C 11.273438 -9.644531 11.84375 -8.316406 11.96875 -6.640625 L 11.984375 -5.828125 C 11.984375 -4.003906 11.472656 -2.539062 10.453125 -1.4375 C 9.441406 -0.332031 8.078125 0.21875 6.359375 0.21875 C 4.648438 0.21875 3.28125 -0.328125 2.25 -1.421875 C 1.226562 -2.523438 0.71875 -4.019531 0.71875 -5.90625 Z M 3.90625 -5.828125 C 3.90625 -4.691406 4.113281 -3.828125 4.53125 -3.234375 C 4.957031 -2.640625 5.566406 -2.34375 6.359375 -2.34375 C 7.128906 -2.34375 7.726562 -2.632812 8.15625 -3.21875 C 8.59375 -3.8125 8.8125 -4.753906 8.8125 -6.046875 C 8.8125 -7.160156 8.59375 -8.019531 8.15625 -8.625 C 7.726562 -9.226562 7.125 -9.53125 6.34375 -9.53125 C 5.5625 -9.53125 4.957031 -9.226562 4.53125 -8.625 C 4.113281 -8.019531 3.90625 -7.085938 3.90625 -5.828125 Z M 3.90625 -5.828125 "/></g></g></g><g fill="#000000" fill-opacity="1"><g transform="translate(324.125254, 166.999158)"><g><path d="M 4.140625 -11.890625 L 4.234375 -10.515625 C 5.085938 -11.578125 6.226562 -12.109375 7.65625 -12.109375 C 8.914062 -12.109375 9.851562 -11.738281 10.46875 -11 C 11.082031 -10.257812 11.398438 -9.148438 11.421875 -7.671875 L 11.421875 0 L 8.234375 0 L 8.234375 -7.609375 C 8.234375 -8.273438 8.085938 -8.757812 7.796875 -9.0625 C 7.503906 -9.375 7.019531 -9.53125 6.34375 -9.53125 C 5.445312 -9.53125 4.773438 -9.144531 4.328125 -8.375 L 4.328125 0 L 1.15625 0 L 1.15625 -11.890625 Z M 4.140625 -11.890625 "/></g></g></g><path fill="#000000" d="M 510.414062 48.984375 C 510.121094 48.984375 509.824219 48.871094 509.601562 48.644531 L 496.902344 35.949219 C 496.453125 35.5 496.453125 34.769531 496.902344 34.320312 C 497.351562 33.871094 498.082031 33.871094 498.53125 34.320312 L 511.230469 47.019531 C 511.679688 47.46875 511.679688 48.195312 511.230469 48.644531 C 511.003906 48.871094 510.707031 48.984375 510.414062 48.984375 Z M 510.414062 48.984375 " fill-opacity="1" fill-rule="nonzero"/><path fill="#000000" d="M 461.792969 97.605469 C 461.5 97.605469 461.203125 97.492188 460.980469 97.265625 C 460.53125 96.816406 460.53125 96.089844 460.980469 95.640625 L 517.183594 39.433594 C 518.71875 37.898438 519.585938 35.875 519.617188 33.742188 C 519.652344 31.621094 518.859375 29.640625 517.382812 28.164062 C 515.910156 26.691406 513.929688 25.898438 511.808594 25.933594 C 509.671875 25.964844 507.652344 26.832031 506.113281 28.367188 L 449.910156 84.570312 C 449.460938 85.019531 448.730469 85.019531 448.28125 84.570312 C 447.832031 84.121094 447.832031 83.390625 448.28125 82.941406 L 504.484375 26.738281 C 506.445312 24.777344 509.035156 23.675781 511.773438 23.628906 C 514.519531 23.585938 517.09375 24.617188 519.011719 26.539062 C 520.929688 28.457031 521.964844 31.027344 521.921875 33.777344 C 521.878906 36.515625 520.773438 39.101562 518.8125 41.0625 L 462.605469 97.269531 C 462.382812 97.492188 462.085938 97.605469 461.792969 97.605469 Z M 461.792969 97.605469 " fill-opacity="1" fill-rule="nonzero"/><path fill="#000000" d="M 455.433594 91.269531 C 455.136719 91.269531 454.84375 91.15625 454.617188 90.933594 C 454.167969 90.484375 454.167969 89.753906 454.617188 89.304688 L 503.253906 40.667969 C 503.703125 40.21875 504.433594 40.21875 504.882812 40.667969 C 505.332031 41.117188 505.332031 41.847656 504.882812 42.296875 L 456.246094 90.933594 C 456.023438 91.15625 455.726562 91.269531 455.433594 91.269531 Z M 455.433594 91.269531 " fill-opacity="1" fill-rule="nonzero"/><path fill="#000000" d="M 440.253906 106.449219 C 439.953125 106.449219 439.65625 106.332031 439.4375 106.109375 C 439.109375 105.78125 439.011719 105.289062 439.1875 104.859375 L 448.03125 83.320312 C 448.175781 82.964844 448.492188 82.703125 448.867188 82.628906 C 449.246094 82.550781 449.636719 82.671875 449.910156 82.941406 L 462.605469 95.640625 C 462.878906 95.914062 462.996094 96.304688 462.921875 96.679688 C 462.84375 97.058594 462.585938 97.371094 462.230469 97.519531 L 440.691406 106.363281 C 440.550781 106.421875 440.398438 106.449219 440.253906 106.449219 Z M 449.503906 85.792969 L 442.363281 103.1875 L 459.753906 96.046875 Z M 449.503906 85.792969 " fill-opacity="1" fill-rule="nonzero"/><path fill="#000000" d="M 500.457031 106.417969 C 500.164062 106.417969 499.871094 106.304688 499.644531 106.082031 L 493.351562 99.785156 L 486.746094 93.183594 L 475.90625 82.339844 C 475.457031 81.890625 475.457031 81.164062 475.90625 80.714844 C 476.355469 80.265625 477.082031 80.265625 477.53125 80.714844 L 500.457031 103.640625 L 518.175781 85.921875 L 495.25 62.996094 C 494.800781 62.546875 494.800781 61.816406 495.25 61.367188 C 495.699219 60.917969 496.429688 60.917969 496.878906 61.367188 L 520.621094 85.109375 C 521.070312 85.558594 521.070312 86.285156 520.621094 86.734375 L 501.273438 106.082031 C 501.046875 106.308594 500.753906 106.417969 500.457031 106.417969 Z M 500.457031 106.417969 " fill-opacity="1" fill-rule="nonzero"/><path fill="#000000" d="M 464.023438 69.980469 C 463.726562 69.980469 463.433594 69.871094 463.207031 69.644531 L 438.382812 44.820312 C 437.933594 44.371094 437.933594 43.640625 438.382812 43.191406 L 457.730469 23.847656 C 458.179688 23.398438 458.90625 23.398438 459.355469 23.847656 L 484.183594 48.671875 C 484.632812 49.121094 484.632812 49.851562 484.183594 50.300781 C 483.734375 50.75 483.003906 50.75 482.554688 50.300781 L 458.542969 26.289062 L 440.824219 44.003906 L 464.835938 68.019531 C 465.285156 68.46875 465.285156 69.199219 464.835938 69.648438 C 464.613281 69.871094 464.316406 69.984375 464.023438 69.984375 Z M 464.023438 69.980469 " fill-opacity="1" fill-rule="nonzero"/><path fill="#000000" d="M 456.546875 46.199219 C 455.425781 46.199219 454.375 45.765625 453.582031 44.972656 C 451.949219 43.339844 451.949219 40.679688 453.582031 39.046875 C 455.214844 37.410156 457.875 37.410156 459.507812 39.046875 C 460.300781 39.835938 460.738281 40.890625 460.738281 42.007812 C 460.738281 43.128906 460.300781 44.179688 459.507812 44.972656 C 458.71875 45.765625 457.664062 46.199219 456.546875 46.199219 Z M 456.546875 40.121094 C 456.0625 40.121094 455.578125 40.304688 455.210938 40.671875 C 454.472656 41.410156 454.472656 42.609375 455.210938 43.34375 C 455.566406 43.699219 456.042969 43.898438 456.546875 43.898438 C 457.050781 43.898438 457.523438 43.699219 457.882812 43.34375 C 458.238281 42.988281 458.433594 42.511719 458.433594 42.007812 C 458.433594 41.503906 458.238281 41.03125 457.882812 40.671875 C 457.511719 40.304688 457.03125 40.121094 456.546875 40.121094 Z M 456.546875 40.121094 " fill-opacity="1" fill-rule="nonzero"/><path fill="#000000" d="M 454.550781 60.507812 C 454.253906 60.507812 453.960938 60.398438 453.738281 60.171875 C 453.289062 59.722656 453.289062 58.992188 453.738281 58.542969 L 465.90625 46.375 C 466.355469 45.925781 467.085938 45.925781 467.535156 46.375 C 467.984375 46.824219 467.984375 47.554688 467.535156 48.003906 L 455.363281 60.171875 C 455.140625 60.398438 454.84375 60.507812 454.550781 60.507812 Z M 454.550781 60.507812 " fill-opacity="1" fill-rule="nonzero"/><path fill="#000000" d="M 461.152344 67.113281 C 460.859375 67.113281 460.5625 67 460.339844 66.777344 C 459.890625 66.328125 459.890625 65.597656 460.339844 65.148438 L 468.167969 57.316406 C 468.617188 56.867188 469.347656 56.867188 469.796875 57.316406 C 470.246094 57.765625 470.246094 58.496094 469.796875 58.945312 L 461.96875 66.777344 C 461.742188 67 461.445312 67.113281 461.152344 67.113281 Z M 461.152344 67.113281 " fill-opacity="1" fill-rule="nonzero"/><path fill="#000000" d="M 480.957031 86.917969 C 480.664062 86.917969 480.371094 86.808594 480.144531 86.582031 C 479.695312 86.132812 479.695312 85.402344 480.144531 84.953125 L 487.976562 77.125 C 488.425781 76.675781 489.15625 76.675781 489.605469 77.125 C 490.054688 77.574219 490.054688 78.300781 489.605469 78.75 L 481.773438 86.582031 C 481.546875 86.808594 481.253906 86.917969 480.957031 86.917969 Z M 480.957031 86.917969 " fill-opacity="1" fill-rule="nonzero"/><path fill="#000000" d="M 487.5625 93.519531 C 487.269531 93.519531 486.972656 93.410156 486.75 93.183594 C 486.300781 92.734375 486.300781 92.003906 486.75 91.554688 L 494.578125 83.726562 C 495.027344 83.277344 495.757812 83.277344 496.207031 83.726562 C 496.65625 84.175781 496.65625 84.90625 496.207031 85.355469 L 488.375 93.183594 C 488.152344 93.410156 487.855469 93.519531 487.5625 93.519531 Z M 487.5625 93.519531 " fill-opacity="1" fill-rule="nonzero"/><path fill="#000000" d="M 494.164062 100.125 C 493.867188 100.125 493.574219 100.011719 493.347656 99.785156 C 492.898438 99.335938 492.898438 98.605469 493.347656 98.15625 L 505.515625 85.988281 C 505.964844 85.539062 506.695312 85.539062 507.144531 85.988281 C 507.59375 86.4375 507.59375 87.167969 507.144531 87.617188 L 494.976562 99.785156 C 494.753906 100.011719 494.457031 100.125 494.164062 100.125 Z M 494.164062 100.125 " fill-opacity="1" fill-rule="nonzero"/><path fill="#000000" d="M 447.816406 103.34375 C 447.523438 103.34375 447.226562 103.230469 447.003906 103.007812 L 442.542969 98.546875 C 442.09375 98.097656 442.09375 97.371094 442.542969 96.921875 C 442.992188 96.472656 443.722656 96.472656 444.171875 96.921875 L 448.628906 101.378906 C 449.078125 101.828125 449.078125 102.558594 448.628906 103.007812 C 448.40625 103.230469 448.109375 103.34375 447.816406 103.34375 Z M 447.816406 103.34375 " fill-opacity="1" fill-rule="nonzero"/><g clip-path="url(#4113558b40)"><path fill="#000000" d="M 437.679688 108.273438 C 437.671875 108.28125 437.660156 108.285156 437.652344 108.285156 C 437.640625 108.289062 437.628906 108.292969 437.621094 108.292969 C 437.585938 108.292969 437.558594 108.28125 437.539062 108.261719 C 437.519531 108.242188 437.511719 108.21875 437.511719 108.1875 C 437.511719 108.15625 437.519531 108.128906 437.539062 108.113281 C 437.558594 108.09375 437.585938 108.082031 437.621094 108.082031 C 437.628906 108.082031 437.640625 108.085938 437.652344 108.085938 C 437.660156 108.089844 437.671875 108.09375 437.679688 108.097656 L 437.679688 108.140625 C 437.671875 108.132812 437.664062 108.128906 437.652344 108.125 C 437.644531 108.121094 437.632812 108.121094 437.621094 108.121094 C 437.605469 108.121094 437.589844 108.128906 437.578125 108.140625 C 437.566406 108.152344 437.5625 108.167969 437.5625 108.1875 C 437.5625 108.207031 437.566406 108.222656 437.578125 108.238281 C 437.589844 108.25 437.605469 108.253906 437.621094 108.253906 C 437.632812 108.253906 437.644531 108.253906 437.652344 108.25 C 437.664062 108.246094 437.671875 108.242188 437.679688 108.234375 Z M 437.679688 108.273438 " fill-opacity="1" fill-rule="nonzero"/><path fill="#000000" d="M 437.832031 108.179688 C 437.828125 108.175781 437.824219 108.175781 437.820312 108.171875 C 437.816406 108.171875 437.8125 108.171875 437.804688 108.171875 C 437.792969 108.171875 437.785156 108.175781 437.777344 108.183594 C 437.773438 108.191406 437.769531 108.203125 437.769531 108.21875 L 437.769531 108.285156 L 437.722656 108.285156 L 437.722656 108.136719 L 437.769531 108.136719 L 437.769531 108.160156 C 437.773438 108.152344 437.78125 108.144531 437.789062 108.140625 C 437.796875 108.136719 437.808594 108.132812 437.820312 108.132812 L 437.832031 108.132812 Z M 437.832031 108.179688 " fill-opacity="1" fill-rule="nonzero"/></g><g clip-path="url(#ea64a24621)"><path fill="#000000" d="M 438.003906 108.210938 L 438.003906 108.226562 L 437.894531 108.226562 C 437.894531 108.238281 437.898438 108.246094 437.902344 108.25 C 437.910156 108.257812 437.921875 108.257812 437.933594 108.257812 C 437.945312 108.257812 437.957031 108.257812 437.964844 108.253906 C 437.976562 108.25 437.988281 108.246094 438 108.242188 L 438 108.277344 C 437.988281 108.28125 437.976562 108.285156 437.964844 108.285156 C 437.953125 108.289062 437.941406 108.292969 437.929688 108.292969 C 437.902344 108.292969 437.882812 108.285156 437.867188 108.269531 C 437.851562 108.257812 437.84375 108.238281 437.84375 108.210938 C 437.84375 108.1875 437.851562 108.167969 437.867188 108.152344 C 437.882812 108.140625 437.902344 108.132812 437.925781 108.132812 C 437.953125 108.132812 437.96875 108.140625 437.984375 108.152344 C 438 108.167969 438.003906 108.1875 438.003906 108.210938 Z M 437.957031 108.195312 C 437.957031 108.1875 437.953125 108.179688 437.945312 108.175781 C 437.941406 108.167969 437.933594 108.164062 437.925781 108.164062 C 437.917969 108.164062 437.910156 108.167969 437.902344 108.171875 C 437.898438 108.179688 437.894531 108.183594 437.894531 108.195312 Z M 437.957031 108.195312 " fill-opacity="1" fill-rule="nonzero"/></g><path fill="#000000" d="M 438.109375 108.21875 C 438.097656 108.21875 438.089844 108.21875 438.085938 108.226562 C 438.082031 108.230469 438.078125 108.234375 438.078125 108.238281 C 438.078125 108.246094 438.082031 108.25 438.085938 108.253906 C 438.089844 108.257812 438.09375 108.257812 438.101562 108.257812 C 438.109375 108.257812 438.117188 108.253906 438.125 108.25 C 438.132812 108.242188 438.136719 108.234375 438.136719 108.226562 L 438.136719 108.21875 Z M 438.183594 108.203125 L 438.183594 108.285156 L 438.136719 108.285156 L 438.136719 108.265625 C 438.128906 108.273438 438.121094 108.28125 438.109375 108.285156 C 438.101562 108.289062 438.09375 108.292969 438.082031 108.292969 C 438.066406 108.292969 438.054688 108.285156 438.042969 108.277344 C 438.035156 108.269531 438.03125 108.257812 438.03125 108.242188 C 438.03125 108.222656 438.035156 108.210938 438.046875 108.203125 C 438.058594 108.195312 438.078125 108.191406 438.105469 108.191406 L 438.136719 108.191406 L 438.136719 108.1875 C 438.136719 108.179688 438.132812 108.175781 438.125 108.171875 C 438.117188 108.167969 438.109375 108.164062 438.097656 108.164062 C 438.085938 108.164062 438.078125 108.167969 438.070312 108.167969 C 438.058594 108.171875 438.050781 108.171875 438.042969 108.179688 L 438.042969 108.140625 C 438.054688 108.136719 438.0625 108.136719 438.074219 108.136719 C 438.082031 108.132812 438.09375 108.132812 438.105469 108.132812 C 438.132812 108.132812 438.152344 108.136719 438.164062 108.148438 C 438.175781 108.160156 438.183594 108.179688 438.183594 108.203125 Z M 438.183594 108.203125 " fill-opacity="1" fill-rule="nonzero"/><path fill="#000000" d="M 438.28125 108.09375 L 438.28125 108.136719 L 438.328125 108.136719 L 438.328125 108.171875 L 438.28125 108.171875 L 438.28125 108.234375 C 438.28125 108.242188 438.28125 108.246094 438.28125 108.25 C 438.285156 108.25 438.292969 108.25 438.300781 108.25 L 438.324219 108.25 L 438.324219 108.285156 L 438.285156 108.285156 C 438.265625 108.285156 438.25 108.285156 438.242188 108.273438 C 438.234375 108.265625 438.230469 108.253906 438.230469 108.234375 L 438.230469 108.171875 L 438.207031 108.171875 L 438.207031 108.136719 L 438.230469 108.136719 L 438.230469 108.09375 Z M 438.28125 108.09375 " fill-opacity="1" fill-rule="nonzero"/><path fill="#000000" d="M 438.507812 108.210938 L 438.507812 108.226562 L 438.394531 108.226562 C 438.394531 108.238281 438.398438 108.246094 438.40625 108.25 C 438.414062 108.257812 438.421875 108.257812 438.4375 108.257812 C 438.445312 108.257812 438.457031 108.257812 438.46875 108.253906 C 438.476562 108.25 438.488281 108.246094 438.5 108.242188 L 438.5 108.277344 C 438.488281 108.28125 438.476562 108.285156 438.464844 108.285156 C 438.453125 108.289062 438.441406 108.292969 438.433594 108.292969 C 438.40625 108.292969 438.382812 108.285156 438.367188 108.269531 C 438.355469 108.257812 438.347656 108.238281 438.347656 108.210938 C 438.347656 108.1875 438.355469 108.167969 438.367188 108.152344 C 438.382812 108.140625 438.402344 108.132812 438.429688 108.132812 C 438.453125 108.132812 438.472656 108.140625 438.484375 108.152344 C 438.5 108.167969 438.507812 108.1875 438.507812 108.210938 Z M 438.457031 108.195312 C 438.457031 108.1875 438.453125 108.179688 438.449219 108.175781 C 438.445312 108.167969 438.4375 108.164062 438.429688 108.164062 C 438.421875 108.164062 438.410156 108.167969 438.40625 108.171875 C 438.402344 108.179688 438.398438 108.183594 438.394531 108.195312 Z M 438.457031 108.195312 " fill-opacity="1" fill-rule="nonzero"/><path fill="#000000" d="M 438.644531 108.160156 L 438.644531 108.078125 L 438.695312 108.078125 L 438.695312 108.285156 L 438.644531 108.285156 L 438.644531 108.265625 C 438.640625 108.273438 438.632812 108.28125 438.625 108.285156 C 438.617188 108.289062 438.605469 108.292969 438.597656 108.292969 C 438.578125 108.292969 438.5625 108.285156 438.550781 108.269531 C 438.539062 108.253906 438.53125 108.234375 438.53125 108.210938 C 438.53125 108.1875 438.539062 108.171875 438.550781 108.15625 C 438.5625 108.140625 438.578125 108.132812 438.597656 108.132812 C 438.605469 108.132812 438.617188 108.136719 438.625 108.140625 C 438.632812 108.144531 438.640625 108.148438 438.644531 108.160156 Z M 438.617188 108.257812 C 438.625 108.257812 438.632812 108.253906 438.636719 108.242188 C 438.644531 108.238281 438.644531 108.226562 438.644531 108.210938 C 438.644531 108.195312 438.644531 108.1875 438.636719 108.179688 C 438.632812 108.171875 438.625 108.167969 438.617188 108.167969 C 438.605469 108.167969 438.59375 108.171875 438.589844 108.179688 C 438.585938 108.1875 438.582031 108.195312 438.582031 108.210938 C 438.582031 108.226562 438.585938 108.238281 438.589844 108.242188 C 438.59375 108.253906 438.605469 108.257812 438.617188 108.257812 Z M 438.617188 108.257812 " fill-opacity="1" fill-rule="nonzero"/><path fill="#000000" d="M 438.917969 108.257812 C 438.925781 108.257812 438.933594 108.253906 438.9375 108.242188 C 438.945312 108.238281 438.949219 108.226562 438.949219 108.210938 C 438.949219 108.195312 438.945312 108.1875 438.9375 108.179688 C 438.933594 108.171875 438.925781 108.167969 438.917969 108.167969 C 438.90625 108.167969 438.898438 108.171875 438.890625 108.179688 C 438.886719 108.1875 438.882812 108.195312 438.882812 108.210938 C 438.882812 108.226562 438.886719 108.238281 438.890625 108.242188 C 438.898438 108.253906 438.90625 108.257812 438.917969 108.257812 Z M 438.882812 108.160156 C 438.890625 108.148438 438.898438 108.144531 438.90625 108.140625 C 438.914062 108.136719 438.921875 108.132812 438.933594 108.132812 C 438.953125 108.132812 438.96875 108.140625 438.976562 108.15625 C 438.992188 108.171875 438.996094 108.1875 438.996094 108.210938 C 438.996094 108.234375 438.992188 108.253906 438.976562 108.269531 C 438.96875 108.285156 438.953125 108.292969 438.933594 108.292969 C 438.921875 108.292969 438.914062 108.289062 438.90625 108.285156 C 438.898438 108.28125 438.890625 108.273438 438.882812 108.265625 L 438.882812 108.285156 L 438.835938 108.285156 L 438.835938 108.078125 L 438.882812 108.078125 Z M 438.882812 108.160156 " fill-opacity="1" fill-rule="nonzero"/><path fill="#000000" d="M 439.011719 108.136719 L 439.0625 108.136719 L 439.101562 108.238281 L 439.132812 108.136719 L 439.183594 108.136719 L 439.121094 108.300781 C 439.113281 108.316406 439.105469 108.332031 439.097656 108.335938 C 439.089844 108.34375 439.078125 108.347656 439.0625 108.347656 L 439.035156 108.347656 L 439.035156 108.316406 L 439.050781 108.316406 C 439.058594 108.316406 439.0625 108.3125 439.066406 108.308594 C 439.074219 108.308594 439.074219 108.300781 439.078125 108.296875 L 439.078125 108.292969 Z M 439.011719 108.136719 " fill-opacity="1" fill-rule="nonzero"/><path fill="#000000" d="M 439.445312 108.09375 L 439.445312 108.136719 C 439.4375 108.128906 439.425781 108.128906 439.414062 108.125 C 439.402344 108.121094 439.394531 108.121094 439.382812 108.121094 C 439.375 108.121094 439.363281 108.121094 439.359375 108.125 C 439.351562 108.128906 439.347656 108.132812 439.347656 108.140625 C 439.347656 108.148438 439.351562 108.152344 439.355469 108.152344 C 439.359375 108.15625 439.367188 108.160156 439.378906 108.160156 L 439.398438 108.164062 C 439.421875 108.171875 439.4375 108.179688 439.445312 108.1875 C 439.457031 108.195312 439.460938 108.207031 439.460938 108.226562 C 439.460938 108.246094 439.453125 108.265625 439.4375 108.273438 C 439.425781 108.285156 439.40625 108.292969 439.378906 108.292969 C 439.367188 108.292969 439.355469 108.289062 439.339844 108.285156 C 439.328125 108.285156 439.316406 108.28125 439.304688 108.277344 L 439.304688 108.230469 C 439.316406 108.238281 439.328125 108.246094 439.339844 108.25 C 439.351562 108.253906 439.363281 108.253906 439.375 108.253906 C 439.386719 108.253906 439.394531 108.253906 439.402344 108.25 C 439.40625 108.246094 439.410156 108.238281 439.410156 108.230469 C 439.410156 108.226562 439.40625 108.222656 439.402344 108.21875 C 439.398438 108.214844 439.390625 108.210938 439.378906 108.207031 L 439.359375 108.203125 C 439.339844 108.199219 439.324219 108.191406 439.316406 108.183594 C 439.304688 108.171875 439.300781 108.160156 439.300781 108.144531 C 439.300781 108.125 439.308594 108.109375 439.320312 108.097656 C 439.335938 108.089844 439.355469 108.082031 439.378906 108.082031 C 439.386719 108.082031 439.398438 108.085938 439.410156 108.085938 C 439.421875 108.085938 439.433594 108.089844 439.445312 108.09375 Z M 439.445312 108.09375 " fill-opacity="1" fill-rule="nonzero"/><path fill="#000000" d="M 439.625 108.25 L 439.546875 108.25 L 439.53125 108.285156 L 439.480469 108.285156 L 439.554688 108.085938 L 439.617188 108.085938 L 439.691406 108.285156 L 439.636719 108.285156 Z M 439.558594 108.214844 L 439.613281 108.214844 L 439.585938 108.132812 Z M 439.558594 108.214844 " fill-opacity="1" fill-rule="nonzero"/><path fill="#000000" d="M 439.71875 108.085938 L 439.78125 108.085938 L 439.828125 108.195312 L 439.875 108.085938 L 439.941406 108.085938 L 439.941406 108.285156 L 439.890625 108.285156 L 439.890625 108.140625 L 439.847656 108.25 L 439.8125 108.25 L 439.765625 108.140625 L 439.765625 108.285156 L 439.71875 108.285156 Z M 439.71875 108.085938 " fill-opacity="1" fill-rule="nonzero"/><path fill="#000000" d="M 440.136719 108.125 L 440.136719 108.25 L 440.15625 108.25 C 440.175781 108.25 440.195312 108.242188 440.207031 108.230469 C 440.214844 108.222656 440.222656 108.207031 440.222656 108.1875 C 440.222656 108.167969 440.214844 108.152344 440.207031 108.140625 C 440.195312 108.132812 440.175781 108.125 440.15625 108.125 Z M 440.085938 108.085938 L 440.140625 108.085938 C 440.171875 108.085938 440.195312 108.085938 440.207031 108.09375 C 440.222656 108.097656 440.238281 108.105469 440.246094 108.113281 C 440.253906 108.125 440.261719 108.132812 440.265625 108.148438 C 440.273438 108.15625 440.273438 108.171875 440.273438 108.1875 C 440.273438 108.203125 440.273438 108.214844 440.265625 108.226562 C 440.261719 108.238281 440.253906 108.25 440.246094 108.257812 C 440.238281 108.269531 440.222656 108.277344 440.207031 108.28125 C 440.195312 108.285156 440.171875 108.285156 440.140625 108.285156 L 440.085938 108.285156 Z M 440.085938 108.085938 " fill-opacity="1" fill-rule="nonzero"/><path fill="#000000" d="M 440.460938 108.210938 L 440.460938 108.226562 L 440.347656 108.226562 C 440.347656 108.238281 440.351562 108.246094 440.359375 108.25 C 440.367188 108.257812 440.375 108.257812 440.390625 108.257812 C 440.398438 108.257812 440.410156 108.257812 440.421875 108.253906 C 440.429688 108.25 440.441406 108.246094 440.453125 108.242188 L 440.453125 108.277344 C 440.441406 108.28125 440.429688 108.285156 440.417969 108.285156 C 440.40625 108.289062 440.394531 108.292969 440.386719 108.292969 C 440.359375 108.292969 440.335938 108.285156 440.320312 108.269531 C 440.308594 108.257812 440.300781 108.238281 440.300781 108.210938 C 440.300781 108.1875 440.308594 108.167969 440.320312 108.152344 C 440.335938 108.140625 440.355469 108.132812 440.382812 108.132812 C 440.40625 108.132812 440.425781 108.140625 440.441406 108.152344 C 440.453125 108.167969 440.460938 108.1875 440.460938 108.210938 Z M 440.410156 108.195312 C 440.410156 108.1875 440.40625 108.179688 440.402344 108.175781 C 440.398438 108.167969 440.390625 108.164062 440.382812 108.164062 C 440.375 108.164062 440.363281 108.167969 440.359375 108.171875 C 440.355469 108.179688 440.351562 108.183594 440.347656 108.195312 Z M 440.410156 108.195312 " fill-opacity="1" fill-rule="nonzero"/><path fill="#000000" d="M 440.613281 108.140625 L 440.613281 108.179688 C 440.605469 108.171875 440.59375 108.171875 440.585938 108.167969 C 440.574219 108.167969 440.566406 108.164062 440.558594 108.164062 C 440.546875 108.164062 440.542969 108.167969 440.539062 108.167969 C 440.53125 108.171875 440.53125 108.171875 440.53125 108.179688 C 440.53125 108.183594 440.53125 108.1875 440.535156 108.1875 C 440.539062 108.1875 440.546875 108.191406 440.554688 108.191406 L 440.5625 108.195312 C 440.585938 108.199219 440.601562 108.203125 440.609375 108.210938 C 440.621094 108.21875 440.625 108.226562 440.625 108.242188 C 440.625 108.257812 440.617188 108.269531 440.605469 108.28125 C 440.59375 108.289062 440.578125 108.292969 440.554688 108.292969 C 440.542969 108.292969 440.53125 108.289062 440.519531 108.289062 C 440.511719 108.289062 440.5 108.285156 440.492188 108.28125 L 440.492188 108.242188 C 440.5 108.25 440.507812 108.253906 440.519531 108.257812 C 440.53125 108.257812 440.539062 108.257812 440.550781 108.257812 C 440.558594 108.257812 440.566406 108.257812 440.570312 108.257812 C 440.574219 108.253906 440.578125 108.25 440.578125 108.242188 C 440.578125 108.238281 440.578125 108.238281 440.574219 108.234375 C 440.570312 108.230469 440.5625 108.230469 440.554688 108.230469 L 440.546875 108.226562 C 440.523438 108.222656 440.507812 108.21875 440.5 108.214844 C 440.492188 108.207031 440.488281 108.195312 440.488281 108.179688 C 440.488281 108.164062 440.492188 108.152344 440.503906 108.144531 C 440.515625 108.136719 440.53125 108.132812 440.554688 108.132812 C 440.5625 108.132812 440.574219 108.132812 440.582031 108.136719 C 440.59375 108.136719 440.601562 108.140625 440.613281 108.140625 Z M 440.613281 108.140625 " fill-opacity="1" fill-rule="nonzero"/><path fill="#000000" d="M 440.660156 108.136719 L 440.707031 108.136719 L 440.707031 108.285156 L 440.660156 108.285156 Z M 440.660156 108.078125 L 440.707031 108.078125 L 440.707031 108.117188 L 440.660156 108.117188 Z M 440.660156 108.078125 " fill-opacity="1" fill-rule="nonzero"/><path fill="#000000" d="M 440.855469 108.261719 C 440.851562 108.269531 440.84375 108.277344 440.835938 108.28125 C 440.828125 108.285156 440.816406 108.285156 440.808594 108.285156 C 440.789062 108.285156 440.773438 108.28125 440.757812 108.265625 C 440.75 108.25 440.742188 108.234375 440.742188 108.210938 C 440.742188 108.1875 440.75 108.167969 440.757812 108.152344 C 440.773438 108.140625 440.789062 108.132812 440.808594 108.132812 C 440.816406 108.132812 440.828125 108.136719 440.835938 108.140625 C 440.84375 108.144531 440.851562 108.148438 440.855469 108.160156 L 440.855469 108.136719 L 440.902344 108.136719 L 440.902344 108.273438 C 440.902344 108.296875 440.894531 108.3125 440.878906 108.328125 C 440.867188 108.339844 440.84375 108.347656 440.816406 108.347656 C 440.808594 108.347656 440.796875 108.34375 440.789062 108.34375 C 440.78125 108.34375 440.769531 108.339844 440.761719 108.335938 L 440.761719 108.300781 C 440.769531 108.304688 440.777344 108.308594 440.785156 108.308594 C 440.792969 108.3125 440.800781 108.316406 440.8125 108.316406 C 440.828125 108.316406 440.839844 108.3125 440.84375 108.304688 C 440.851562 108.296875 440.855469 108.285156 440.855469 108.273438 Z M 440.824219 108.167969 C 440.816406 108.167969 440.804688 108.171875 440.800781 108.179688 C 440.796875 108.1875 440.792969 108.195312 440.792969 108.210938 C 440.792969 108.222656 440.796875 108.234375 440.800781 108.242188 C 440.804688 108.25 440.816406 108.25 440.824219 108.25 C 440.835938 108.25 440.84375 108.25 440.847656 108.242188 C 440.851562 108.234375 440.855469 108.222656 440.855469 108.210938 C 440.855469 108.195312 440.851562 108.1875 440.847656 108.179688 C 440.84375 108.171875 440.835938 108.167969 440.824219 108.167969 Z M 440.824219 108.167969 " fill-opacity="1" fill-rule="nonzero"/><path fill="#000000" d="M 441.101562 108.195312 L 441.101562 108.285156 L 441.054688 108.285156 L 441.054688 108.214844 C 441.054688 108.203125 441.050781 108.195312 441.050781 108.191406 C 441.050781 108.183594 441.050781 108.183594 441.046875 108.179688 C 441.046875 108.175781 441.042969 108.175781 441.039062 108.171875 C 441.039062 108.171875 441.035156 108.167969 441.03125 108.167969 C 441.019531 108.167969 441.011719 108.171875 441.003906 108.179688 C 441 108.1875 441 108.199219 441 108.214844 L 441 108.285156 L 440.949219 108.285156 L 440.949219 108.136719 L 441 108.136719 L 441 108.160156 C 441.007812 108.148438 441.015625 108.144531 441.023438 108.140625 C 441.03125 108.136719 441.039062 108.132812 441.046875 108.132812 C 441.066406 108.132812 441.078125 108.136719 441.089844 108.148438 C 441.097656 108.160156 441.101562 108.175781 441.101562 108.195312 Z M 441.101562 108.195312 " fill-opacity="1" fill-rule="nonzero"/><path fill="#000000" d="M 441.261719 108.140625 L 441.261719 108.179688 C 441.253906 108.171875 441.242188 108.171875 441.234375 108.167969 C 441.222656 108.167969 441.214844 108.164062 441.207031 108.164062 C 441.195312 108.164062 441.191406 108.167969 441.1875 108.167969 C 441.179688 108.171875 441.179688 108.171875 441.179688 108.179688 C 441.179688 108.183594 441.179688 108.1875 441.183594 108.1875 C 441.1875 108.1875 441.195312 108.191406 441.203125 108.191406 L 441.210938 108.195312 C 441.234375 108.199219 441.25 108.203125 441.261719 108.210938 C 441.269531 108.21875 441.273438 108.226562 441.273438 108.242188 C 441.273438 108.257812 441.265625 108.269531 441.253906 108.28125 C 441.242188 108.289062 441.226562 108.292969 441.203125 108.292969 C 441.191406 108.292969 441.179688 108.289062 441.167969 108.289062 C 441.160156 108.289062 441.148438 108.285156 441.140625 108.28125 L 441.140625 108.242188 C 441.148438 108.25 441.15625 108.253906 441.167969 108.257812 C 441.179688 108.257812 441.1875 108.257812 441.199219 108.257812 C 441.207031 108.257812 441.214844 108.257812 441.21875 108.257812 C 441.222656 108.253906 441.226562 108.25 441.226562 108.242188 C 441.226562 108.238281 441.226562 108.238281 441.222656 108.234375 C 441.21875 108.230469 441.210938 108.230469 441.203125 108.230469 L 441.195312 108.226562 C 441.171875 108.222656 441.15625 108.21875 441.148438 108.214844 C 441.140625 108.207031 441.136719 108.195312 441.136719 108.179688 C 441.136719 108.164062 441.140625 108.152344 441.152344 108.144531 C 441.164062 108.136719 441.179688 108.132812 441.203125 108.132812 C 441.210938 108.132812 441.222656 108.132812 441.230469 108.136719 C 441.242188 108.136719 441.25 108.140625 441.261719 108.140625 Z M 441.261719 108.140625 " fill-opacity="1" fill-rule="nonzero"/><g clip-path="url(#a69ab19f6c)"><path fill="#000000" d="M 437.617188 108.351562 L 437.617188 108.382812 L 437.589844 108.382812 C 437.585938 108.382812 437.582031 108.386719 437.578125 108.386719 C 437.574219 108.390625 437.574219 108.394531 437.574219 108.398438 L 437.574219 108.410156 L 437.613281 108.410156 L 437.613281 108.445312 L 437.574219 108.445312 L 437.574219 108.5625 L 437.523438 108.5625 L 437.523438 108.445312 L 437.5 108.445312 L 437.5 108.410156 L 437.523438 108.410156 L 437.523438 108.398438 C 437.523438 108.382812 437.53125 108.371094 437.539062 108.363281 C 437.546875 108.355469 437.5625 108.351562 437.582031 108.351562 Z M 437.617188 108.351562 " fill-opacity="1" fill-rule="nonzero"/><path fill="#000000" d="M 437.75 108.453125 C 437.746094 108.449219 437.742188 108.449219 437.738281 108.449219 C 437.734375 108.445312 437.730469 108.445312 437.726562 108.445312 C 437.710938 108.445312 437.703125 108.449219 437.695312 108.457031 C 437.691406 108.464844 437.6875 108.476562 437.6875 108.492188 L 437.6875 108.5625 L 437.640625 108.5625 L 437.640625 108.410156 L 437.6875 108.410156 L 437.6875 108.4375 C 437.691406 108.425781 437.699219 108.417969 437.707031 108.414062 C 437.714844 108.410156 437.726562 108.40625 437.738281 108.40625 L 437.75 108.40625 Z M 437.75 108.453125 " fill-opacity="1" fill-rule="nonzero"/><path fill="#000000" d="M 437.84375 108.441406 C 437.835938 108.441406 437.824219 108.445312 437.820312 108.453125 C 437.816406 108.460938 437.8125 108.472656 437.8125 108.484375 C 437.8125 108.5 437.816406 108.511719 437.820312 108.519531 C 437.824219 108.527344 437.835938 108.53125 437.84375 108.53125 C 437.855469 108.53125 437.863281 108.527344 437.871094 108.519531 C 437.875 108.511719 437.878906 108.5 437.878906 108.484375 C 437.878906 108.472656 437.875 108.460938 437.871094 108.453125 C 437.863281 108.445312 437.855469 108.441406 437.84375 108.441406 Z M 437.84375 108.40625 C 437.871094 108.40625 437.890625 108.414062 437.90625 108.429688 C 437.921875 108.441406 437.929688 108.460938 437.929688 108.484375 C 437.929688 108.511719 437.921875 108.53125 437.90625 108.542969 C 437.890625 108.558594 437.871094 108.566406 437.84375 108.566406 C 437.820312 108.566406 437.800781 108.558594 437.785156 108.542969 C 437.769531 108.53125 437.761719 108.511719 437.761719 108.484375 C 437.761719 108.460938 437.769531 108.441406 437.785156 108.429688 C 437.800781 108.414062 437.820312 108.40625 437.84375 108.40625 Z M 437.84375 108.40625 " fill-opacity="1" fill-rule="nonzero"/></g><g clip-path="url(#dfa876ac8a)"><path fill="#000000" d="M 438.101562 108.4375 C 438.109375 108.425781 438.113281 108.417969 438.121094 108.414062 C 438.132812 108.410156 438.140625 108.40625 438.148438 108.40625 C 438.167969 108.40625 438.179688 108.414062 438.191406 108.421875 C 438.199219 108.433594 438.203125 108.449219 438.203125 108.46875 L 438.203125 108.5625 L 438.15625 108.5625 L 438.15625 108.472656 C 438.15625 108.464844 438.152344 108.453125 438.148438 108.449219 C 438.148438 108.445312 438.140625 108.441406 438.136719 108.441406 C 438.125 108.441406 438.121094 108.445312 438.113281 108.453125 C 438.109375 108.464844 438.109375 108.472656 438.109375 108.488281 L 438.109375 108.5625 L 438.058594 108.5625 L 438.058594 108.484375 C 438.058594 108.464844 438.054688 108.453125 438.054688 108.449219 C 438.050781 108.445312 438.046875 108.441406 438.039062 108.441406 C 438.03125 108.441406 438.023438 108.445312 438.015625 108.453125 C 438.011719 108.464844 438.011719 108.472656 438.011719 108.488281 L 438.011719 108.5625 L 437.964844 108.5625 L 437.964844 108.410156 L 438.011719 108.410156 L 438.011719 108.433594 C 438.015625 108.421875 438.023438 108.417969 438.03125 108.414062 C 438.039062 108.410156 438.046875 108.40625 438.054688 108.40625 C 438.066406 108.40625 438.074219 108.410156 438.082031 108.414062 C 438.089844 108.417969 438.097656 108.425781 438.101562 108.4375 Z M 438.101562 108.4375 " fill-opacity="1" fill-rule="nonzero"/></g><path fill="#000000" d="M 438.394531 108.371094 L 438.394531 108.410156 L 438.445312 108.410156 L 438.445312 108.445312 L 438.394531 108.445312 L 438.394531 108.507812 C 438.394531 108.515625 438.398438 108.519531 438.398438 108.523438 C 438.402344 108.523438 438.410156 108.527344 438.417969 108.527344 L 438.441406 108.527344 L 438.441406 108.5625 L 438.402344 108.5625 C 438.382812 108.5625 438.367188 108.558594 438.359375 108.550781 C 438.351562 108.542969 438.347656 108.527344 438.347656 108.507812 L 438.347656 108.445312 L 438.324219 108.445312 L 438.324219 108.410156 L 438.347656 108.410156 L 438.347656 108.371094 Z M 438.394531 108.371094 " fill-opacity="1" fill-rule="nonzero"/><path fill="#000000" d="M 438.625 108.46875 L 438.625 108.5625 L 438.578125 108.5625 L 438.578125 108.492188 C 438.578125 108.476562 438.574219 108.46875 438.574219 108.464844 C 438.574219 108.460938 438.574219 108.457031 438.574219 108.453125 C 438.570312 108.453125 438.566406 108.449219 438.566406 108.449219 C 438.5625 108.445312 438.558594 108.441406 438.554688 108.441406 C 438.542969 108.441406 438.535156 108.445312 438.53125 108.453125 C 438.523438 108.464844 438.523438 108.472656 438.523438 108.488281 L 438.523438 108.5625 L 438.476562 108.5625 L 438.476562 108.351562 L 438.523438 108.351562 L 438.523438 108.433594 C 438.53125 108.421875 438.539062 108.417969 438.546875 108.414062 C 438.554688 108.410156 438.5625 108.40625 438.574219 108.40625 C 438.589844 108.40625 438.601562 108.414062 438.613281 108.421875 C 438.621094 108.433594 438.625 108.449219 438.625 108.46875 Z M 438.625 108.46875 " fill-opacity="1" fill-rule="nonzero"/><path fill="#000000" d="M 438.820312 108.484375 L 438.820312 108.5 L 438.707031 108.5 C 438.707031 108.511719 438.710938 108.519531 438.71875 108.527344 C 438.726562 108.53125 438.734375 108.53125 438.75 108.53125 C 438.757812 108.53125 438.769531 108.53125 438.777344 108.527344 C 438.789062 108.523438 438.800781 108.519531 438.8125 108.515625 L 438.8125 108.550781 C 438.800781 108.554688 438.789062 108.558594 438.777344 108.5625 C 438.765625 108.5625 438.753906 108.566406 438.742188 108.566406 C 438.714844 108.566406 438.695312 108.558594 438.679688 108.542969 C 438.664062 108.53125 438.660156 108.511719 438.660156 108.484375 C 438.660156 108.460938 438.664062 108.441406 438.679688 108.429688 C 438.695312 108.414062 438.714844 108.40625 438.742188 108.40625 C 438.765625 108.40625 438.785156 108.414062 438.796875 108.429688 C 438.8125 108.441406 438.820312 108.460938 438.820312 108.484375 Z M 438.769531 108.46875 C 438.769531 108.460938 438.765625 108.453125 438.761719 108.449219 C 438.753906 108.445312 438.75 108.441406 438.742188 108.441406 C 438.730469 108.441406 438.722656 108.441406 438.71875 108.449219 C 438.710938 108.453125 438.710938 108.460938 438.707031 108.46875 Z M 438.769531 108.46875 " fill-opacity="1" fill-rule="nonzero"/><path fill="#000000" d="M 438.953125 108.359375 L 439.011719 108.359375 L 439.085938 108.496094 L 439.085938 108.359375 L 439.132812 108.359375 L 439.132812 108.5625 L 439.074219 108.5625 L 439 108.421875 L 439 108.5625 L 438.953125 108.5625 Z M 438.953125 108.359375 " fill-opacity="1" fill-rule="nonzero"/><path fill="#000000" d="M 439.253906 108.441406 C 439.242188 108.441406 439.230469 108.445312 439.226562 108.453125 C 439.222656 108.460938 439.21875 108.472656 439.21875 108.484375 C 439.21875 108.5 439.222656 108.511719 439.226562 108.519531 C 439.230469 108.527344 439.242188 108.53125 439.253906 108.53125 C 439.261719 108.53125 439.269531 108.527344 439.277344 108.519531 C 439.28125 108.511719 439.285156 108.5 439.285156 108.484375 C 439.285156 108.472656 439.28125 108.460938 439.277344 108.453125 C 439.269531 108.445312 439.261719 108.441406 439.253906 108.441406 Z M 439.253906 108.40625 C 439.277344 108.40625 439.296875 108.414062 439.3125 108.429688 C 439.328125 108.441406 439.335938 108.460938 439.335938 108.484375 C 439.335938 108.511719 439.328125 108.53125 439.3125 108.542969 C 439.296875 108.558594 439.277344 108.566406 439.253906 108.566406 C 439.226562 108.566406 439.207031 108.558594 439.191406 108.542969 C 439.175781 108.53125 439.167969 108.511719 439.167969 108.484375 C 439.167969 108.460938 439.175781 108.441406 439.191406 108.429688 C 439.207031 108.414062 439.226562 108.40625 439.253906 108.40625 Z M 439.253906 108.40625 " fill-opacity="1" fill-rule="nonzero"/><path fill="#000000" d="M 439.367188 108.503906 L 439.367188 108.410156 L 439.414062 108.410156 L 439.414062 108.507812 C 439.414062 108.515625 439.417969 108.515625 439.417969 108.519531 C 439.421875 108.523438 439.421875 108.523438 439.425781 108.527344 C 439.429688 108.527344 439.433594 108.527344 439.4375 108.527344 C 439.449219 108.527344 439.457031 108.523438 439.460938 108.519531 C 439.46875 108.511719 439.472656 108.5 439.472656 108.484375 L 439.472656 108.410156 L 439.519531 108.410156 L 439.519531 108.5625 L 439.472656 108.5625 L 439.472656 108.539062 C 439.464844 108.546875 439.457031 108.554688 439.449219 108.558594 C 439.441406 108.5625 439.429688 108.566406 439.421875 108.566406 C 439.402344 108.566406 439.390625 108.5625 439.382812 108.550781 C 439.371094 108.539062 439.367188 108.523438 439.367188 108.503906 Z M 439.367188 108.503906 " fill-opacity="1" fill-rule="nonzero"/><path fill="#000000" d="M 439.714844 108.46875 L 439.714844 108.5625 L 439.667969 108.5625 L 439.667969 108.488281 C 439.667969 108.476562 439.664062 108.46875 439.664062 108.464844 C 439.664062 108.460938 439.664062 108.457031 439.660156 108.453125 C 439.660156 108.453125 439.65625 108.449219 439.65625 108.449219 C 439.652344 108.445312 439.648438 108.441406 439.644531 108.441406 C 439.632812 108.441406 439.625 108.445312 439.617188 108.453125 C 439.613281 108.464844 439.613281 108.472656 439.613281 108.488281 L 439.613281 108.5625 L 439.566406 108.5625 L 439.566406 108.410156 L 439.613281 108.410156 L 439.613281 108.433594 C 439.621094 108.421875 439.628906 108.417969 439.636719 108.414062 C 439.644531 108.410156 439.652344 108.40625 439.660156 108.40625 C 439.679688 108.40625 439.691406 108.414062 439.703125 108.421875 C 439.710938 108.433594 439.714844 108.449219 439.714844 108.46875 Z M 439.714844 108.46875 " fill-opacity="1" fill-rule="nonzero"/><path fill="#000000" d="M 439.855469 108.359375 L 439.941406 108.359375 C 439.96875 108.359375 439.988281 108.367188 440 108.378906 C 440.015625 108.390625 440.019531 108.40625 440.019531 108.425781 C 440.019531 108.445312 440.015625 108.464844 440 108.476562 C 439.988281 108.488281 439.96875 108.492188 439.941406 108.492188 L 439.90625 108.492188 L 439.90625 108.5625 L 439.855469 108.5625 Z M 439.90625 108.398438 L 439.90625 108.453125 L 439.9375 108.453125 C 439.949219 108.453125 439.953125 108.453125 439.960938 108.449219 C 439.964844 108.441406 439.96875 108.4375 439.96875 108.425781 C 439.96875 108.417969 439.964844 108.410156 439.960938 108.40625 C 439.953125 108.398438 439.949219 108.398438 439.9375 108.398438 Z M 439.90625 108.398438 " fill-opacity="1" fill-rule="nonzero"/><path fill="#000000" d="M 440.167969 108.453125 C 440.164062 108.449219 440.15625 108.449219 440.152344 108.449219 C 440.148438 108.445312 440.144531 108.445312 440.140625 108.445312 C 440.128906 108.445312 440.117188 108.449219 440.113281 108.457031 C 440.105469 108.464844 440.101562 108.476562 440.101562 108.492188 L 440.101562 108.5625 L 440.054688 108.5625 L 440.054688 108.410156 L 440.101562 108.410156 L 440.101562 108.4375 C 440.109375 108.425781 440.117188 108.417969 440.125 108.414062 C 440.132812 108.410156 440.140625 108.40625 440.152344 108.40625 L 440.167969 108.40625 Z M 440.167969 108.453125 " fill-opacity="1" fill-rule="nonzero"/><path fill="#000000" d="M 440.261719 108.441406 C 440.25 108.441406 440.242188 108.445312 440.234375 108.453125 C 440.230469 108.460938 440.230469 108.472656 440.230469 108.484375 C 440.230469 108.5 440.230469 108.511719 440.234375 108.519531 C 440.242188 108.527344 440.25 108.53125 440.261719 108.53125 C 440.273438 108.53125 440.28125 108.527344 440.285156 108.519531 C 440.292969 108.511719 440.296875 108.5 440.296875 108.484375 C 440.296875 108.472656 440.292969 108.460938 440.285156 108.453125 C 440.28125 108.445312 440.273438 108.441406 440.261719 108.441406 Z M 440.261719 108.40625 C 440.289062 108.40625 440.308594 108.414062 440.320312 108.429688 C 440.335938 108.441406 440.34375 108.460938 440.34375 108.484375 C 440.34375 108.511719 440.335938 108.53125 440.320312 108.542969 C 440.308594 108.558594 440.289062 108.566406 440.261719 108.566406 C 440.238281 108.566406 440.214844 108.558594 440.199219 108.542969 C 440.1875 108.53125 440.179688 108.511719 440.179688 108.484375 C 440.179688 108.460938 440.1875 108.441406 440.199219 108.429688 C 440.214844 108.414062 440.238281 108.40625 440.261719 108.40625 Z M 440.261719 108.40625 " fill-opacity="1" fill-rule="nonzero"/><path fill="#000000" d="M 440.378906 108.410156 L 440.425781 108.410156 L 440.425781 108.558594 C 440.425781 108.578125 440.421875 108.59375 440.414062 108.605469 C 440.402344 108.613281 440.390625 108.621094 440.371094 108.621094 L 440.347656 108.621094 L 440.347656 108.589844 L 440.355469 108.589844 C 440.363281 108.589844 440.367188 108.585938 440.371094 108.582031 C 440.378906 108.578125 440.378906 108.570312 440.378906 108.558594 Z M 440.378906 108.351562 L 440.425781 108.351562 L 440.425781 108.390625 L 440.378906 108.390625 Z M 440.378906 108.351562 " fill-opacity="1" fill-rule="nonzero"/><path fill="#000000" d="M 440.621094 108.484375 L 440.621094 108.5 L 440.511719 108.5 C 440.511719 108.511719 440.515625 108.519531 440.519531 108.527344 C 440.527344 108.53125 440.539062 108.53125 440.550781 108.53125 C 440.5625 108.53125 440.574219 108.53125 440.582031 108.527344 C 440.59375 108.523438 440.605469 108.519531 440.617188 108.515625 L 440.617188 108.550781 C 440.605469 108.554688 440.59375 108.558594 440.578125 108.5625 C 440.570312 108.5625 440.558594 108.566406 440.546875 108.566406 C 440.519531 108.566406 440.5 108.558594 440.484375 108.542969 C 440.46875 108.53125 440.460938 108.511719 440.460938 108.484375 C 440.460938 108.460938 440.46875 108.441406 440.484375 108.429688 C 440.5 108.414062 440.519531 108.40625 440.542969 108.40625 C 440.566406 108.40625 440.585938 108.414062 440.601562 108.429688 C 440.617188 108.441406 440.621094 108.460938 440.621094 108.484375 Z M 440.574219 108.46875 C 440.574219 108.460938 440.570312 108.453125 440.5625 108.449219 C 440.558594 108.445312 440.550781 108.441406 440.542969 108.441406 C 440.535156 108.441406 440.527344 108.441406 440.519531 108.449219 C 440.515625 108.453125 440.511719 108.460938 440.511719 108.46875 Z M 440.574219 108.46875 " fill-opacity="1" fill-rule="nonzero"/><path fill="#000000" d="M 440.78125 108.417969 L 440.78125 108.453125 C 440.773438 108.449219 440.765625 108.445312 440.761719 108.445312 C 440.753906 108.445312 440.746094 108.441406 440.738281 108.441406 C 440.726562 108.441406 440.71875 108.445312 440.710938 108.453125 C 440.699219 108.460938 440.699219 108.472656 440.699219 108.484375 C 440.699219 108.5 440.699219 108.511719 440.710938 108.519531 C 440.71875 108.527344 440.726562 108.53125 440.738281 108.53125 C 440.746094 108.53125 440.753906 108.53125 440.761719 108.527344 C 440.765625 108.523438 440.773438 108.523438 440.78125 108.519531 L 440.78125 108.554688 C 440.773438 108.558594 440.765625 108.5625 440.757812 108.5625 C 440.75 108.566406 440.742188 108.566406 440.734375 108.566406 C 440.707031 108.566406 440.683594 108.558594 440.667969 108.542969 C 440.65625 108.53125 440.648438 108.511719 440.648438 108.484375 C 440.648438 108.460938 440.65625 108.441406 440.667969 108.429688 C 440.683594 108.414062 440.707031 108.40625 440.734375 108.40625 C 440.742188 108.40625 440.75 108.410156 440.757812 108.410156 C 440.765625 108.410156 440.773438 108.414062 440.78125 108.417969 Z M 440.78125 108.417969 " fill-opacity="1" fill-rule="nonzero"/><path fill="#000000" d="M 440.875 108.371094 L 440.875 108.410156 L 440.921875 108.410156 L 440.921875 108.445312 L 440.875 108.445312 L 440.875 108.507812 C 440.875 108.515625 440.875 108.519531 440.875 108.523438 C 440.878906 108.523438 440.886719 108.527344 440.894531 108.527344 L 440.917969 108.527344 L 440.917969 108.5625 L 440.878906 108.5625 C 440.859375 108.5625 440.847656 108.558594 440.839844 108.550781 C 440.828125 108.542969 440.828125 108.527344 440.828125 108.507812 L 440.828125 108.445312 L 440.804688 108.445312 L 440.804688 108.410156 L 440.828125 108.410156 L 440.828125 108.371094 Z M 440.875 108.371094 " fill-opacity="1" fill-rule="nonzero"/><g fill="#000000" fill-opacity="1"><g transform="translate(431.523332, 166.999158)"><g><path d="M 4.71875 -5.640625 L 4.71875 0 L 1.421875 0 L 1.421875 -16 L 7.671875 -16 C 8.867188 -16 9.921875 -15.773438 10.828125 -15.328125 C 11.742188 -14.890625 12.445312 -14.265625 12.9375 -13.453125 C 13.425781 -12.648438 13.671875 -11.734375 13.671875 -10.703125 C 13.671875 -9.128906 13.132812 -7.890625 12.0625 -6.984375 C 10.988281 -6.085938 9.503906 -5.640625 7.609375 -5.640625 Z M 4.71875 -8.3125 L 7.671875 -8.3125 C 8.535156 -8.3125 9.195312 -8.515625 9.65625 -8.921875 C 10.113281 -9.328125 10.34375 -9.910156 10.34375 -10.671875 C 10.34375 -11.460938 10.113281 -12.097656 9.65625 -12.578125 C 9.195312 -13.054688 8.5625 -13.304688 7.75 -13.328125 L 4.71875 -13.328125 Z M 4.71875 -8.3125 "/></g></g></g><g fill="#000000" fill-opacity="1"><g transform="translate(446.035371, 166.999158)"><g><path d="M 7.90625 -8.90625 C 7.46875 -8.96875 7.082031 -9 6.75 -9 C 5.550781 -9 4.765625 -8.59375 4.390625 -7.78125 L 4.390625 0 L 1.21875 0 L 1.21875 -11.890625 L 4.21875 -11.890625 L 4.3125 -10.46875 C 4.945312 -11.5625 5.828125 -12.109375 6.953125 -12.109375 C 7.304688 -12.109375 7.632812 -12.0625 7.9375 -11.96875 Z M 7.90625 -8.90625 "/></g></g></g><g fill="#000000" fill-opacity="1"><g transform="translate(454.241652, 166.999158)"><g><path d="M 0.71875 -6.046875 C 0.71875 -7.234375 0.945312 -8.285156 1.40625 -9.203125 C 1.863281 -10.128906 2.515625 -10.84375 3.359375 -11.34375 C 4.210938 -11.851562 5.207031 -12.109375 6.34375 -12.109375 C 7.945312 -12.109375 9.253906 -11.613281 10.265625 -10.625 C 11.273438 -9.644531 11.84375 -8.316406 11.96875 -6.640625 L 11.984375 -5.828125 C 11.984375 -4.003906 11.472656 -2.539062 10.453125 -1.4375 C 9.441406 -0.332031 8.078125 0.21875 6.359375 0.21875 C 4.648438 0.21875 3.28125 -0.328125 2.25 -1.421875 C 1.226562 -2.523438 0.71875 -4.019531 0.71875 -5.90625 Z M 3.90625 -5.828125 C 3.90625 -4.691406 4.113281 -3.828125 4.53125 -3.234375 C 4.957031 -2.640625 5.566406 -2.34375 6.359375 -2.34375 C 7.128906 -2.34375 7.726562 -2.632812 8.15625 -3.21875 C 8.59375 -3.8125 8.8125 -4.753906 8.8125 -6.046875 C 8.8125 -7.160156 8.59375 -8.019531 8.15625 -8.625 C 7.726562 -9.226562 7.125 -9.53125 6.34375 -9.53125 C 5.5625 -9.53125 4.957031 -9.226562 4.53125 -8.625 C 4.113281 -8.019531 3.90625 -7.085938 3.90625 -5.828125 Z M 3.90625 -5.828125 "/></g></g></g><g fill="#000000" fill-opacity="1"><g transform="translate(466.963026, 166.999158)"><g><path d="M 5.015625 -14.8125 L 5.015625 -11.890625 L 7.046875 -11.890625 L 7.046875 -9.5625 L 5.015625 -9.5625 L 5.015625 -3.625 C 5.015625 -3.1875 5.097656 -2.867188 5.265625 -2.671875 C 5.441406 -2.484375 5.765625 -2.390625 6.234375 -2.390625 C 6.585938 -2.390625 6.898438 -2.414062 7.171875 -2.46875 L 7.171875 -0.0625 C 6.546875 0.125 5.90625 0.21875 5.25 0.21875 C 3.019531 0.21875 1.882812 -0.90625 1.84375 -3.15625 L 1.84375 -9.5625 L 0.109375 -9.5625 L 0.109375 -11.890625 L 1.84375 -11.890625 L 1.84375 -14.8125 Z M 5.015625 -14.8125 "/></g></g></g><g fill="#000000" fill-opacity="1"><g transform="translate(474.565091, 166.999158)"><g><path d="M 0.71875 -6.046875 C 0.71875 -7.234375 0.945312 -8.285156 1.40625 -9.203125 C 1.863281 -10.128906 2.515625 -10.84375 3.359375 -11.34375 C 4.210938 -11.851562 5.207031 -12.109375 6.34375 -12.109375 C 7.945312 -12.109375 9.253906 -11.613281 10.265625 -10.625 C 11.273438 -9.644531 11.84375 -8.316406 11.96875 -6.640625 L 11.984375 -5.828125 C 11.984375 -4.003906 11.472656 -2.539062 10.453125 -1.4375 C 9.441406 -0.332031 8.078125 0.21875 6.359375 0.21875 C 4.648438 0.21875 3.28125 -0.328125 2.25 -1.421875 C 1.226562 -2.523438 0.71875 -4.019531 0.71875 -5.90625 Z M 3.90625 -5.828125 C 3.90625 -4.691406 4.113281 -3.828125 4.53125 -3.234375 C 4.957031 -2.640625 5.566406 -2.34375 6.359375 -2.34375 C 7.128906 -2.34375 7.726562 -2.632812 8.15625 -3.21875 C 8.59375 -3.8125 8.8125 -4.753906 8.8125 -6.046875 C 8.8125 -7.160156 8.59375 -8.019531 8.15625 -8.625 C 7.726562 -9.226562 7.125 -9.53125 6.34375 -9.53125 C 5.5625 -9.53125 4.957031 -9.226562 4.53125 -8.625 C 4.113281 -8.019531 3.90625 -7.085938 3.90625 -5.828125 Z M 3.90625 -5.828125 "/></g></g></g><g fill="#000000" fill-opacity="1"><g transform="translate(487.286465, 166.999158)"><g><path d="M 5.015625 -14.8125 L 5.015625 -11.890625 L 7.046875 -11.890625 L 7.046875 -9.5625 L 5.015625 -9.5625 L 5.015625 -3.625 C 5.015625 -3.1875 5.097656 -2.867188 5.265625 -2.671875 C 5.441406 -2.484375 5.765625 -2.390625 6.234375 -2.390625 C 6.585938 -2.390625 6.898438 -2.414062 7.171875 -2.46875 L 7.171875 -0.0625 C 6.546875 0.125 5.90625 0.21875 5.25 0.21875 C 3.019531 0.21875 1.882812 -0.90625 1.84375 -3.15625 L 1.84375 -9.5625 L 0.109375 -9.5625 L 0.109375 -11.890625 L 1.84375 -11.890625 L 1.84375 -14.8125 Z M 5.015625 -14.8125 "/></g></g></g><g fill="#000000" fill-opacity="1"><g transform="translate(494.88853, 166.999158)"><g><path d="M 5.65625 -4.5 L 7.859375 -11.890625 L 11.265625 -11.890625 L 6.484375 1.84375 L 6.21875 2.46875 C 5.507812 4.019531 4.335938 4.796875 2.703125 4.796875 C 2.242188 4.796875 1.773438 4.726562 1.296875 4.59375 L 1.296875 2.1875 L 1.78125 2.203125 C 2.382812 2.203125 2.832031 2.109375 3.125 1.921875 C 3.425781 1.734375 3.660156 1.429688 3.828125 1.015625 L 4.203125 0.03125 L 0.03125 -11.890625 L 3.453125 -11.890625 Z M 5.65625 -4.5 "/></g></g></g><g fill="#000000" fill-opacity="1"><g transform="translate(506.18177, 166.999158)"><g><path d="M 11.921875 -5.828125 C 11.921875 -4.003906 11.503906 -2.539062 10.671875 -1.4375 C 9.835938 -0.332031 8.71875 0.21875 7.3125 0.21875 C 6.101562 0.21875 5.128906 -0.195312 4.390625 -1.03125 L 4.390625 4.578125 L 1.21875 4.578125 L 1.21875 -11.890625 L 4.15625 -11.890625 L 4.28125 -10.71875 C 5.039062 -11.644531 6.039062 -12.109375 7.28125 -12.109375 C 8.75 -12.109375 9.890625 -11.566406 10.703125 -10.484375 C 11.515625 -9.398438 11.921875 -7.90625 11.921875 -6 Z M 8.75 -6.0625 C 8.75 -7.164062 8.550781 -8.019531 8.15625 -8.625 C 7.757812 -9.226562 7.191406 -9.53125 6.453125 -9.53125 C 5.453125 -9.53125 4.765625 -9.144531 4.390625 -8.375 L 4.390625 -3.515625 C 4.785156 -2.734375 5.476562 -2.34375 6.46875 -2.34375 C 7.988281 -2.34375 8.75 -3.582031 8.75 -6.0625 Z M 8.75 -6.0625 "/></g></g></g><g fill="#000000" fill-opacity="1"><g transform="translate(518.848222, 166.999158)"><g><path d="M 6.6875 0.21875 C 4.945312 0.21875 3.53125 -0.3125 2.4375 -1.375 C 1.34375 -2.445312 0.796875 -3.875 0.796875 -5.65625 L 0.796875 -5.96875 C 0.796875 -7.15625 1.023438 -8.21875 1.484375 -9.15625 C 1.941406 -10.101562 2.59375 -10.832031 3.4375 -11.34375 C 4.289062 -11.851562 5.257812 -12.109375 6.34375 -12.109375 C 7.96875 -12.109375 9.242188 -11.59375 10.171875 -10.5625 C 11.109375 -9.539062 11.578125 -8.085938 11.578125 -6.203125 L 11.578125 -4.90625 L 4.015625 -4.90625 C 4.109375 -4.132812 4.414062 -3.515625 4.9375 -3.046875 C 5.457031 -2.578125 6.113281 -2.34375 6.90625 -2.34375 C 8.125 -2.34375 9.078125 -2.785156 9.765625 -3.671875 L 11.328125 -1.921875 C 10.847656 -1.242188 10.203125 -0.71875 9.390625 -0.34375 C 8.578125 0.03125 7.675781 0.21875 6.6875 0.21875 Z M 6.328125 -9.53125 C 5.703125 -9.53125 5.191406 -9.316406 4.796875 -8.890625 C 4.398438 -8.472656 4.148438 -7.867188 4.046875 -7.078125 L 8.453125 -7.078125 L 8.453125 -7.328125 C 8.441406 -8.023438 8.253906 -8.566406 7.890625 -8.953125 C 7.523438 -9.335938 7.003906 -9.53125 6.328125 -9.53125 Z M 6.328125 -9.53125 "/></g></g></g><path fill="#000000" d="M 619.207031 36.410156 C 611.429688 36.410156 605.097656 42.746094 605.097656 50.527344 C 605.097656 56.082031 608.320312 60.714844 612.996094 62.921875 C 602.5 65.699219 594.761719 75.273438 594.835938 86.621094 C 594.933594 87.226562 595.507812 87.71875 596.121094 87.71875 C 596.730469 87.71875 597.304688 87.226562 597.402344 86.621094 C 597.320312 74.558594 606.988281 64.683594 619.050781 64.605469 C 626.632812 64.554688 633.683594 68.492188 637.691406 74.910156 C 631.875 79.40625 628.136719 86.421875 628.1875 94.320312 C 628.285156 94.925781 628.859375 95.417969 629.472656 95.417969 C 630.085938 95.417969 630.660156 94.925781 630.753906 94.320312 C 630.675781 82.257812 640.34375 72.382812 652.402344 72.304688 C 664.460938 72.222656 674.289062 81.976562 674.371094 94.042969 C 674.425781 94.683594 675.097656 95.230469 675.652344 95.21875 C 676.484375 95.175781 676.871094 94.660156 676.9375 93.960938 C 676.886719 86.167969 673.164062 79.289062 667.4375 74.871094 C 673.785156 64.691406 687.070312 61.554688 697.300781 67.851562 C 703.75 71.816406 707.71875 78.847656 707.726562 86.417969 C 707.820312 87.023438 708.394531 87.515625 709.007812 87.515625 C 709.621094 87.515625 710.195312 87.023438 710.292969 86.417969 C 710.285156 77.960938 705.910156 70.117188 698.707031 65.683594 C 696.617188 64.398438 694.390625 63.46875 692.132812 62.878906 C 696.796875 60.664062 700.03125 56.0625 700.03125 50.523438 C 700.03125 42.742188 693.695312 36.40625 685.917969 36.40625 C 678.140625 36.40625 671.808594 42.742188 671.808594 50.523438 C 671.808594 56.078125 675.003906 60.714844 679.664062 62.917969 C 673.945312 64.4375 668.761719 68.027344 665.351562 73.386719 C 663.351562 72.15625 661.144531 71.234375 658.820312 70.617188 C 663.476562 68.414062 666.675781 63.78125 666.675781 58.226562 C 666.675781 50.445312 660.34375 44.105469 652.566406 44.105469 C 644.789062 44.105469 638.453125 50.445312 638.453125 58.226562 C 638.453125 63.773438 641.710938 68.410156 646.390625 70.617188 C 644.039062 71.238281 641.835938 72.179688 639.816406 73.425781 C 636.488281 68.175781 631.339844 64.472656 625.464844 62.917969 C 630.125 60.707031 633.324219 56.066406 633.324219 50.523438 C 633.324219 42.742188 626.992188 36.40625 619.210938 36.40625 Z M 619.207031 38.976562 C 625.601562 38.976562 630.753906 44.132812 630.753906 50.527344 C 630.753906 56.921875 625.597656 62.078125 619.207031 62.078125 C 612.816406 62.078125 607.664062 56.921875 607.664062 50.527344 C 607.664062 44.132812 612.816406 38.976562 619.207031 38.976562 Z M 685.914062 38.976562 C 692.304688 38.976562 697.460938 44.132812 697.460938 50.527344 C 697.460938 56.921875 692.304688 62.078125 685.914062 62.078125 C 679.523438 62.078125 674.371094 56.921875 674.371094 50.527344 C 674.371094 44.132812 679.523438 38.976562 685.914062 38.976562 Z M 652.5625 46.675781 C 658.953125 46.675781 664.105469 51.832031 664.105469 58.226562 C 664.105469 64.621094 658.953125 69.777344 652.5625 69.777344 C 645.988281 69.765625 641.148438 64.695312 641.015625 58.226562 C 641.015625 51.832031 646.171875 46.675781 652.5625 46.675781 Z M 652.5625 46.675781 " fill-opacity="1" fill-rule="nonzero"/><g fill="#000000" fill-opacity="1"><g transform="translate(627.686073, 166.999158)"><g><path d="M 13.46875 -13.328125 L 8.5625 -13.328125 L 8.5625 0 L 5.28125 0 L 5.28125 -13.328125 L 0.4375 -13.328125 L 0.4375 -16 L 13.46875 -16 Z M 13.46875 -13.328125 "/></g></g></g><g fill="#000000" fill-opacity="1"><g transform="translate(641.604888, 166.999158)"><g><path d="M 6.6875 0.21875 C 4.945312 0.21875 3.53125 -0.3125 2.4375 -1.375 C 1.34375 -2.445312 0.796875 -3.875 0.796875 -5.65625 L 0.796875 -5.96875 C 0.796875 -7.15625 1.023438 -8.21875 1.484375 -9.15625 C 1.941406 -10.101562 2.59375 -10.832031 3.4375 -11.34375 C 4.289062 -11.851562 5.257812 -12.109375 6.34375 -12.109375 C 7.96875 -12.109375 9.242188 -11.59375 10.171875 -10.5625 C 11.109375 -9.539062 11.578125 -8.085938 11.578125 -6.203125 L 11.578125 -4.90625 L 4.015625 -4.90625 C 4.109375 -4.132812 4.414062 -3.515625 4.9375 -3.046875 C 5.457031 -2.578125 6.113281 -2.34375 6.90625 -2.34375 C 8.125 -2.34375 9.078125 -2.785156 9.765625 -3.671875 L 11.328125 -1.921875 C 10.847656 -1.242188 10.203125 -0.71875 9.390625 -0.34375 C 8.578125 0.03125 7.675781 0.21875 6.6875 0.21875 Z M 6.328125 -9.53125 C 5.703125 -9.53125 5.191406 -9.316406 4.796875 -8.890625 C 4.398438 -8.472656 4.148438 -7.867188 4.046875 -7.078125 L 8.453125 -7.078125 L 8.453125 -7.328125 C 8.441406 -8.023438 8.253906 -8.566406 7.890625 -8.953125 C 7.523438 -9.335938 7.003906 -9.53125 6.328125 -9.53125 Z M 6.328125 -9.53125 "/></g></g></g><g fill="#000000" fill-opacity="1"><g transform="translate(653.766, 166.999158)"><g><path d="M 7.65625 -3.28125 C 7.65625 -3.675781 7.460938 -3.984375 7.078125 -4.203125 C 6.691406 -4.421875 6.078125 -4.617188 5.234375 -4.796875 C 2.398438 -5.390625 0.984375 -6.59375 0.984375 -8.40625 C 0.984375 -9.457031 1.421875 -10.335938 2.296875 -11.046875 C 3.171875 -11.753906 4.316406 -12.109375 5.734375 -12.109375 C 7.242188 -12.109375 8.453125 -11.75 9.359375 -11.03125 C 10.265625 -10.320312 10.71875 -9.398438 10.71875 -8.265625 L 7.53125 -8.265625 C 7.53125 -8.722656 7.382812 -9.097656 7.09375 -9.390625 C 6.800781 -9.691406 6.34375 -9.84375 5.71875 -9.84375 C 5.1875 -9.84375 4.773438 -9.722656 4.484375 -9.484375 C 4.191406 -9.242188 4.046875 -8.9375 4.046875 -8.5625 C 4.046875 -8.207031 4.210938 -7.921875 4.546875 -7.703125 C 4.878906 -7.492188 5.441406 -7.304688 6.234375 -7.140625 C 7.023438 -6.984375 7.691406 -6.804688 8.234375 -6.609375 C 9.910156 -5.992188 10.75 -4.929688 10.75 -3.421875 C 10.75 -2.335938 10.28125 -1.457031 9.34375 -0.78125 C 8.414062 -0.113281 7.21875 0.21875 5.75 0.21875 C 4.75 0.21875 3.863281 0.0390625 3.09375 -0.3125 C 2.320312 -0.664062 1.710938 -1.148438 1.265625 -1.765625 C 0.828125 -2.390625 0.609375 -3.0625 0.609375 -3.78125 L 3.625 -3.78125 C 3.65625 -3.21875 3.863281 -2.785156 4.25 -2.484375 C 4.632812 -2.179688 5.15625 -2.03125 5.8125 -2.03125 C 6.414062 -2.03125 6.875 -2.144531 7.1875 -2.375 C 7.5 -2.601562 7.65625 -2.90625 7.65625 -3.28125 Z M 7.65625 -3.28125 "/></g></g></g><g fill="#000000" fill-opacity="1"><g transform="translate(665.333887, 166.999158)"><g><path d="M 5.015625 -14.8125 L 5.015625 -11.890625 L 7.046875 -11.890625 L 7.046875 -9.5625 L 5.015625 -9.5625 L 5.015625 -3.625 C 5.015625 -3.1875 5.097656 -2.867188 5.265625 -2.671875 C 5.441406 -2.484375 5.765625 -2.390625 6.234375 -2.390625 C 6.585938 -2.390625 6.898438 -2.414062 7.171875 -2.46875 L 7.171875 -0.0625 C 6.546875 0.125 5.90625 0.21875 5.25 0.21875 C 3.019531 0.21875 1.882812 -0.90625 1.84375 -3.15625 L 1.84375 -9.5625 L 0.109375 -9.5625 L 0.109375 -11.890625 L 1.84375 -11.890625 L 1.84375 -14.8125 Z M 5.015625 -14.8125 "/></g></g></g></svg>